<svg xmlns="http://www.w3.org/2000/svg" width="94.952" height="37.19" viewBox="0 0 94.952 37.19">
  <g id="Arrow" transform="translate(-1378.874 -334.755)">
    <g id="Vector_Smart_Object_copy" data-name="Vector Smart Object copy">
      <g id="Vector_Smart_Object_copy-2" data-name="Vector Smart Object copy">
        <g id="Group_323" data-name="Group 323">
          <path id="Path_477" data-name="Path 477" d="M1392.75,335.6c.188-.184-.135-.3-.154-.373C1392.381,335.608,1392.823,335.639,1392.75,335.6Z" fill="#fff"/>
          <path id="Path_478" data-name="Path 478" d="M1390.6,339.39l-.058-.138-.144.687Z" fill="#fff"/>
          <path id="Path_479" data-name="Path 479" d="M1388.033,342.529c.686.027.858-1.191,1.468-1.637l.18-.02-.152-.511A11.56,11.56,0,0,1,1388.033,342.529Z" fill="#fff"/>
          <path id="Path_480" data-name="Path 480" d="M1385.713,343.491c.253.024-.149.471.372-.347l-.1.036Z" fill="#fff"/>
          <path id="Path_481" data-name="Path 481" d="M1385.985,343.179c.253-.336-.325.11,0,0Z" fill="#fff"/>
          <path id="Path_482" data-name="Path 482" d="M1384.835,344.779l.2-.553c-.173.023-.517.392-.473.191C1384.282,344.924,1384.459,344.91,1384.835,344.779Z" fill="#fff"/>
          <path id="Path_483" data-name="Path 483" d="M1384.822,345.432l.115-.273C1384.867,345.17,1384.8,345.215,1384.822,345.432Z" fill="#fff"/>
          <path id="Path_484" data-name="Path 484" d="M1385.193,344.578l-.255.58c.125-.008.275.088.131-.258C1385.172,345.035,1385.12,344.849,1385.193,344.578Z" fill="#fff"/>
          <path id="Path_485" data-name="Path 485" d="M1385.48,344.358c.3-.177.617-.443.409.107C1386.507,343.586,1386.1,343.479,1385.48,344.358Z" fill="#fff"/>
          <path id="Path_486" data-name="Path 486" d="M1388.362,343.026l.39-.231.084-.4C1388.8,342.594,1388.205,342.942,1388.362,343.026Z" fill="#fff"/>
          <path id="Path_487" data-name="Path 487" d="M1381.7,348.164c.089.074.547-.178.749-.18l.313-.6C1382.455,347.634,1381.927,348.166,1381.7,348.164Z" fill="#fff"/>
          <path id="Path_488" data-name="Path 488" d="M1382.452,347.985l-.428.841C1382.611,348.139,1382.615,347.98,1382.452,347.985Z" fill="#fff"/>
          <path id="Path_489" data-name="Path 489" d="M1385.248,345.872l.305-1.041-.425,1.2Z" fill="#fff"/>
          <path id="Path_490" data-name="Path 490" d="M1379.316,351.468c.055-.012-.372-.028-.39-.128l.005-.219c.122-.033-.32.266.215.334l.825.187Z" fill="#fff"/>
          <path id="Path_491" data-name="Path 491" d="M1382.006,352.738c-.679-.085.21.523-.395.375a11.013,11.013,0,0,0,2.238.66A5.555,5.555,0,0,1,1382.006,352.738Z" fill="#fff"/>
          <path id="Path_492" data-name="Path 492" d="M1384.888,354.01l-1.04-.238A4.881,4.881,0,0,0,1384.888,354.01Z" fill="#fff"/>
          <path id="Path_493" data-name="Path 493" d="M1380.86,350.151a3.161,3.161,0,0,0-1,.7l.741-.39Z" fill="#fff"/>
          <path id="Path_494" data-name="Path 494" d="M1380.627,350.451l-.022.012-.574.678Z" fill="#fff"/>
          <path id="Path_495" data-name="Path 495" d="M1380.925,350.076l-.065.076C1380.934,350.118,1380.96,350.1,1380.925,350.076Z" fill="#fff"/>
          <path id="Path_496" data-name="Path 496" d="M1383.958,346.979c-.217.553-.645,1.394.23.77C1384.211,347.363,1383.688,347.752,1383.958,346.979Z" fill="#fff"/>
          <path id="Path_497" data-name="Path 497" d="M1381.782,349.681l.709-.75c-.112,0-.379.122-.307-.1Z" fill="#fff"/>
          <path id="Path_498" data-name="Path 498" d="M1381.62,350.042l.161-.363-.269.286Z" fill="#fff"/>
          <path id="Path_499" data-name="Path 499" d="M1383.389,352.936a7.1,7.1,0,0,1,1.5.54,16.845,16.845,0,0,0-1.534-.861C1383.2,352.65,1382.779,352.647,1383.389,352.936Z" fill="#fff"/>
          <path id="Path_500" data-name="Path 500" d="M1381.4,351.851l.118.035A.077.077,0,0,0,1381.4,351.851Z" fill="#fff"/>
          <path id="Path_501" data-name="Path 501" d="M1388.2,355.11l-.02-.075-.041.042Z" fill="#fff"/>
          <path id="Path_502" data-name="Path 502" d="M1383.332,352.533a2.292,2.292,0,0,0-.99-.359l1.018.442C1383.434,352.6,1383.472,352.586,1383.332,352.533Z" fill="#fff"/>
          <path id="Path_503" data-name="Path 503" d="M1385.9,354.342l-.355-.372C1385.625,354.123,1385.811,354.39,1385.9,354.342Z" fill="#fff"/>
          <path id="Path_504" data-name="Path 504" d="M1381.548,352l-.083-.025C1381.522,352.081,1381.544,352.054,1381.548,352Z" fill="#fff"/>
          <path id="Path_505" data-name="Path 505" d="M1381.548,352a5.991,5.991,0,0,0,.793.171l-.828-.288A.322.322,0,0,1,1381.548,352Z" fill="#fff"/>
          <path id="Path_506" data-name="Path 506" d="M1390.234,353.8c-.2.239-1.024.138-1.445-.427-.692-.091-.836.941-.612,1.663.087-.1.149-.2.84-.066-.129-.239-1.125-.976-.481-.962.87.254.592.411.894.733-.136-.48,1.282.026,1.4-.531l-.793-.171C1390.069,353.957,1390.386,353.966,1390.234,353.8Z" fill="#fff"/>
          <path id="Path_507" data-name="Path 507" d="M1387.051,354.449l-.259-.088a2.547,2.547,0,0,1,.637.762c.48.08.622.027.709-.046l-1.19-.632Z" fill="#fff"/>
          <path id="Path_508" data-name="Path 508" d="M1385.685,353.815c.364-.183,1.029-.012.851-.49-.753-.351-.6.007-1.2-.132,1.3.548-.4,0,.36.589a4.532,4.532,0,0,1-.8-.306,3.589,3.589,0,0,1,.652.493l-.016-.031-.006,0,0-.006c-.025-.058-.034-.086.013-.04l.029.006.116-.081c.306.225.009.1-.116.081l-.042.033,0,.009,1.262.422A5.78,5.78,0,0,0,1385.685,353.815Z" fill="#fff"/>
          <path id="Path_509" data-name="Path 509" d="M1384.382,348.633a.185.185,0,0,1-.106.017C1384.259,348.726,1384.275,348.757,1384.382,348.633Z" fill="#fff"/>
          <path id="Path_510" data-name="Path 510" d="M1383.807,349.027c.007-.088-.085-.187.177-.45.29-.2.163.056.291.073.018-.168.218-.645-.37-.18l-.02.1a7.227,7.227,0,0,1-1.545.987A12.8,12.8,0,0,0,1383.807,349.027Z" fill="#fff"/>
          <path id="Path_511" data-name="Path 511" d="M1382.787,351.494l1.418.521-.31-.472-.152.118A.953.953,0,0,0,1382.787,351.494Z" fill="#fff"/>
          <path id="Path_512" data-name="Path 512" d="M1388.223,355.3l-.308.232.814-.14Z" fill="#fff"/>
          <path id="Path_513" data-name="Path 513" d="M1389.506,355.891l-.2.234.427.009Z" fill="#fff"/>
          <path id="Path_514" data-name="Path 514" d="M1406.551,342.6l.328-.086A1.442,1.442,0,0,0,1406.551,342.6Z" fill="#fff"/>
          <path id="Path_515" data-name="Path 515" d="M1404.186,342.567l-.053.143C1404.239,342.632,1404.288,342.571,1404.186,342.567Z" fill="#fff"/>
          <path id="Path_516" data-name="Path 516" d="M1393,346.828c.4-.112.849-.008.543-.172l-.316-.116A.351.351,0,0,1,1393,346.828Z" fill="#fff"/>
          <path id="Path_517" data-name="Path 517" d="M1395.359,341.1l.19-.067-.13-.35Z" fill="#fff"/>
          <path id="Path_518" data-name="Path 518" d="M1396.761,341.628l-.473.222Z" fill="#fff"/>
          <path id="Path_519" data-name="Path 519" d="M1419.469,342.933l.426-.283C1419.3,342.581,1419.538,342.775,1419.469,342.933Z" fill="#fff"/>
          <path id="Path_520" data-name="Path 520" d="M1403.265,358.132a4.081,4.081,0,0,0-.317-1.043C1403.023,357.639,1402.942,358.12,1403.265,358.132Z" fill="#fff"/>
          <path id="Path_521" data-name="Path 521" d="M1405.7,346.038c.193-.059.277-.126.268-.2C1405.77,345.9,1405.663,345.958,1405.7,346.038Z" fill="#fff"/>
          <path id="Path_522" data-name="Path 522" d="M1402.35,355.971l.046.244a4.525,4.525,0,0,1,.553.874A1.492,1.492,0,0,0,1402.35,355.971Z" fill="#fff"/>
          <path id="Path_523" data-name="Path 523" d="M1462.692,358.926l.063.092C1462.787,358.988,1462.756,358.957,1462.692,358.926Z" fill="#fff"/>
          <path id="Path_524" data-name="Path 524" d="M1470.887,369.5l-.417-.333A1.391,1.391,0,0,0,1470.887,369.5Z" fill="#fff"/>
          <path id="Path_525" data-name="Path 525" d="M1394.507,358.52c-.275-.118-.061.009,0,0Z" fill="#fff"/>
          <path id="Path_526" data-name="Path 526" d="M1393.87,356.755a.239.239,0,0,0,.19-.084A.319.319,0,0,1,1393.87,356.755Z" fill="#fff"/>
          <path id="Path_527" data-name="Path 527" d="M1398.742,354.79l-.016-.015C1398.735,354.879,1398.738,354.857,1398.742,354.79Z" fill="#fff"/>
          <path id="Path_528" data-name="Path 528" d="M1394.177,358.191a3.708,3.708,0,0,0,.3.253A2.22,2.22,0,0,0,1394.177,358.191Z" fill="#fff"/>
          <path id="Path_529" data-name="Path 529" d="M1394.156,358.349l-.22-.145C1393.878,358.237,1393.887,358.28,1394.156,358.349Z" fill="#fff"/>
          <path id="Path_530" data-name="Path 530" d="M1394.893,358.685a2.156,2.156,0,0,1-.418-.241c.041.043.031.076.031.076Z" fill="#fff"/>
          <path id="Path_531" data-name="Path 531" d="M1440.2,348.8l.051.055C1440.58,348.829,1440.448,348.8,1440.2,348.8Z" fill="#fff"/>
          <path id="Path_532" data-name="Path 532" d="M1394.82,339.324l-.014.035.042-.023Z" fill="#fff"/>
          <path id="Path_533" data-name="Path 533" d="M1395.452,338.388a.989.989,0,0,1-.605.946l.955.411Z" fill="#fff"/>
          <path id="Path_534" data-name="Path 534" d="M1412.222,342.533l-.76-.293c.957-.477,1.635-.3.924-.715-.157,1.011-3.04.084-3.174,1.1l-.5-.215c.147.01.174-.053.311-.04-.989-.5-.738.729-2.009.577-.448-.08-.754-.229-.458-.345l-.983.242c-.288-.018-.226-.194.063-.176l-1.507.078.01-.033a5.79,5.79,0,0,1-.915.5c-.39-.144.187-.108.085-.234l-.823.273c-.35-.232.323-.57.906-.5-.84-1.029-.679.244-2.4-.155l.778-.219c-.547-.511-1.145-.236-2.079-.491.236.161,1.862.7.977,1.057a1.515,1.515,0,0,0-1.066.216c.013-.369-.62-.21-.986-.143l-.008-.479c-.146.151-.167.4-.372.646-.3-.015-.144-.407.017-.735-.221-.054-.125.606-.652.763-.22-.16-.539.075-1.607.489-.014-.168.564-.361.7-.515l-.966.495c-.048,0,.21-.151.339-.226a13.67,13.67,0,0,1-1.732.811c-1.813.856,1.978-1.373.885-1.093a8.162,8.162,0,0,1,.939-.34c-.376-.2-.261-.158-.681-.53l.809-.457c-.747.311-1.025-.055-.932-.752a6.66,6.66,0,0,0-.83.362l.584-1.117c.187-.093.243.1.311.335l.031-.222c.458-.267.538.093.647.4l-.547.178a.878.878,0,0,0,.771.543.235.235,0,0,1,.009-.226.256.256,0,0,0,.188.1c.074,0,0-.085-.052-.232l.653.1-.191-.124c-.057-.028.9-.367,1.04-.452a8.612,8.612,0,0,1,1.94-3.444c-.1.578.325.564.59.953-.675-.106-.913.965-1.667,1.41.4-.234.468,0,.432.126l.942-1.288c.215.319.439.022.857-.1-.708-.421.623-1.114,1-1.7.171.191.2.5-.454.92.571-.029.607-.47.714-.878l-1.2-1.825c-.1.31-.24.6-.679.65.165-.127.277-.156.269-.306-.261.455-1.311.986-1.224.645l.161-.121c-1.193.691-3.389,2.426-3,3.106a3.468,3.468,0,0,1-.441-.842l-.1,1.6-.047,1.555c-.255-.53-1.838-.863-1.252-1.849a2.411,2.411,0,0,0-1.006.988c.225-.1,1,.158.827.394a4.081,4.081,0,0,0-1.737.595c.293-.187.757.659.42,1.031-.053-.141-.717-.494-.67-.7l-.1,1.521c.067-.335-.56-.471-.936-.386.221-.007-.714.878-.861,1.2l.513-.325c-1.02,1.043.117,1.849-.6,3.011a.906.906,0,0,0-1.469.128c.193.554,1.608,1.5,1.771,1.9l-.448.28,1.093.049c-.312.07-.742.152-1.288.224-.687.125-.994.052-1.121-.132a2,2,0,0,1-.611-1.484c-.609.653-.467.209-1.008,1.2-.52.429-.146-.477.02-.8l-1.646,2.569c.287-.159,2.651.37,2.948.086l-1.665-.243c-.664.022-.314-.359-.3-.551l.109-.368a.623.623,0,0,1,.823.416,9.414,9.414,0,0,1,2.526.363c.167.258-1.278.535-1.468.649a5.227,5.227,0,0,1,2,.408l-.977-.024c.89.471,2.062-.062,2.891.7.223.185.372,1.016.557.776a3.666,3.666,0,0,1,1.185-2.579,9.273,9.273,0,0,1,1.246,1.77c.138.626-1.252.5-1.125,1.045.091-.109.415-.112.536-.1.187.252-.362.284.219.566.414-.35,1.093.723.54-.181.645.222.531.419,1.033.954.065-.42,1.282-.318,1.874.092-.129.06-.153.285-.167.386a8.59,8.59,0,0,1,1.759,2.793c-.056.164.079.751-.243.632a1.332,1.332,0,0,1,.591.5c-.088.823-.455-.7-.7.012.3-.092.83.657,1.269,1.069.368-.311-.512-1.145-.922-1.52a1.284,1.284,0,0,1,1.162.159,3.873,3.873,0,0,1,.72.5l.359.351.184.2.089.1.044.052.019.025.016.015.006,0h0l-1.4,1.128-.006,0c-1.051-.335-.213-.563-.427-.568-1.766-1-2.108.208-3.389-.944-.4-.647.375-.713.388-1.036.866.261,1.085.827,1.628,1.075l-.563-.5a1.979,1.979,0,0,1,1.124.424c-.322-.57-3.04-1.578-4.268-2.558-.321,0-.826-.1-.707.146l.479.172c.239.484-1.067-.021-.587.388a4.478,4.478,0,0,1-2.311-.688l.082-.481c-.053.128.409.513.716.509-.452,0-.96-1.179-1.662-.847l.427.568a4.981,4.981,0,0,1-2.383-.524c.1.556.2.035.454.757-.117-.8,1.889.965,1.513,0,.22.8.8.69,1.249,1.5.053-.143-.105-.373.478-.005a1.088,1.088,0,0,1,.209-.044l.032.031-.022-.034c.042,0,.045-.009-.01-.012a.778.778,0,0,1-.2-.358c.492-.151,1.478.351,1.907.361.338.241-.241.074-.122.316l.638.012c-.122.316.7.976-.273.717l.782.4a2.885,2.885,0,0,0,1.431.842c.334.247,1.127.135.671.2l1.339.429-.026.079a7.038,7.038,0,0,0,.983.417l5.316,1.881-2.654-4.033a7.49,7.49,0,0,1-1.54-3.2c-.359-.366-.55-.849-1.092-1.473l.134-.295c-.516-.4-1.11-1.62-1.533-1.611.047-.521-.46-1.166-1.125-1.711a22.276,22.276,0,0,1-2.066-1.2l-.256.3a9.846,9.846,0,0,0-2.221-1.065l-.128.313c-.661.077-1.036-.573-1.682-.734.209-.074.324,0,.361.092.18-.441-.767-.266-.774-.537a.8.8,0,0,1,.445-.932c-.063-.153.057-.271.209-.358l0,.037.039-.058.3-.147a1.067,1.067,0,0,0-.28.117,1.576,1.576,0,0,0,.14-.514l.368.11.007-.043c.293-.156.012-.293-.35-.293a1.664,1.664,0,0,0,.1-.481c.675.106.4-.832,1.165-.774-.106-.358.886-1.5.494-2.057.073.043.17-.017.053.141a2.292,2.292,0,0,0,.72-.89l.479.187.157-1.011c.6-.169.871-.2.759.4.505-1.24.578-.837.971-1.971l.174.261c.265-.269.423-1.012.8-.935.767-.048,2.175-1.186,3.681-2.176l-1.416-2.144a13.676,13.676,0,0,1-2.057,1.236c.91.419-1.135.359-.778.954-.249-.075-.59.035-.4-.339-.839.9-1.7.888-1.969,1.822-.262-.066-.012-.381-.2-.4-.052.1-.17.361-.382.366s.047-.253.119-.432c-1.153.871-.824,1.713-.314,2.007-.751.454-1.034.86-.913,1.34-.389.155-.97.531-.395-.269-.359.384-2.732,2.837-1.955,2.663a1.333,1.333,0,0,0-.542.694c-.836.956-1,1.089-1.676,1.98l.385-.341c1.029-.3-.748.808.73.424l-.155.078c1.424.256,1.212-.337,2.674-.017l.369-.4c1.111-.9,1.289.313,2.97-.179l-.319-.17c.667-.342,1.489.885,2.524.86.192.047-.293.141-.573.227,2.175.208.332-.512,1.52-.761.216.227-.183.669.51.639.357.174,1.937-1.087,2.92-.655-.216-.2-.442-.391.037-.533.744-.067,2.028.749,2.679.139.092.053.13.1.136.151.559-.157,1.833-.25,2.179-.579.5,1.239,3.551-.585,3.5.555l1.741-.049-.052.112a2.948,2.948,0,0,0,1.926-.319c.246.112.049.193.026.25a4.19,4.19,0,0,0,3.174,0l.1.391c.4-.167,2.248.864,3.889.628a.287.287,0,0,1-.2.142c1.881-.295,4.011,1.614,4.922.518l1.231-.044c-1.473-.464.358-.515-.21-.883.618.063,1.432.765.693.658l-.1-.1c-.432.624,1.8.692,1.637,1.148a48.119,48.119,0,0,1,8.273,2.745l-.113-.629.91.374c.2.2.171.52-.477.258.233.42,1.188.157,1.253.05,1.2.684-.732.418-.342.576l.543.157-.1-.108c.516-.047.643-.254,1.42.055.456.291.124.413.316.506-.02.036.041.074.3.121l1.134.467-.289-.57c.6-.007,1.076.424.743-.228.52.9,4.181,1.911,4.487,2.466a5.525,5.525,0,0,1,2.313.865c-.159-.184-.051-.683.64-.263-.754.759,1.109,1.052,1.318,1.981-.269-.682,2.1.924,1.642-.074.564.374-.16.343.169.779,1.686.307,2.9,1.955,4.591,2.93.1-.088-.053-.44.411-.375l.473,1.126c.358.159.754-.43,1.064.341-.018-.147-.035-.369.2-.26a40.819,40.819,0,0,0,4.747,3.419,16.979,16.979,0,0,1,4.04,4.255c-.213-.532.067-.32.376-.07-.152-.212.236-.23.324-.394l.868,1.425c.595-.163,1.342,1.112,1.822.894l-.453-.281c.942.06.2-1.511.794-1.957-1.048-.058-.881-2.044-2.511-2.232-.116-.294.343-.009.348-.229-.465.011-.809-.2-1.268-.785l.115-.005c-1.636-1.255-2-2.182-3.763-3.707l-.09.377a2,2,0,0,1-.539-.66c-.822.106,1.153.806.334.982-.09-.94-2.921-1.964-2.79-2.881-.637-.432-.062.46-.7.028l-.036-.293-.341.125c-.391-.32-.433-.693-.338-.854a2.344,2.344,0,0,0,.444.208c-.4-.583-1.6-.956-1.739-1.152l.54.523c-1.866-1.007-3.834-2.722-5.964-3.161l.052.217c-1.547-.431-1.019-.725-2.619-1.373l.074,0a2.806,2.806,0,0,1-1.243-.367c.481.019-.538-.706.07-.64-1.672-.469-.877-.151-2.163-.095l-.093-.367a1.789,1.789,0,0,1-1.332-.158c.727.1-.3-.628.541-.556-1.314-1.42-2.724-.459-3.107-1.6-1.094.417,1.28.929.777.921.256.362-.881.291-1.369.031-.527-.218-.514-1.245-1.885-1.736.137.059.167,0,.3.054-.432-.363-1.1-.113-1.6-.642-.525.3-.8-.321-1.117.192l1.3.331c-.768-.113-1.679.294-2.714-.447a2.163,2.163,0,0,1,.8-.1c-.279-.289-.7-.125-.987-.426.313-.522,1.56.437,2.485.29-.275-.371-1.592-.123-.979-.591-.839.572-1.309-.591-2.449-.341l.182-.309a2.222,2.222,0,0,1-.788-.062l.637-.257c-.876.087-1.332-.862-2.162-.814,1.57.373.22.49.793.906-2.064-.024-.813-1.154-3.031-1.52.3.018,1.034.472.527.517a3.515,3.515,0,0,1-1.093-.677c-1.456-.272.118.41-.553.474-.364-.537-.747,0-1.407-.018l.093-.353c-1.568-.617-.628.629-2.013,0l.737-.338-.791-.056.253-.367a3.142,3.142,0,0,1-1.93-.349c.132.294-.256.611-.976.452-.443-.33.352-.265-.685-.463.284-.168.594-.385.971.051.065-.106.277-.171.345-.268a3.8,3.8,0,0,0-1.7-.451.89.89,0,0,1,.386.165c.013-.055-1.605.276-1.605.276-.216-.167,0-.247.2-.331a8.347,8.347,0,0,1-1.017.11c.172-.276.2-.578.865-.636l-1.511.146c-.069-.141-.682-.439-.476-.522-.786-.275-2.064.321-3.1-.036a.792.792,0,0,1-.414.1,6.966,6.966,0,0,0-3.07-.4l-.632-.606c-.936,0,.858.77-.709.781-1.107.082-.374-.473-.75-.641a3.077,3.077,0,0,1-2.545.362A5.028,5.028,0,0,1,1412.222,342.533Zm-11.534.416c.216-.1.641-.385.819-.191C1401.285,343.2,1401.075,343.022,1400.688,342.949Zm-3.707-2.523c-.018.183-.233.208-.471.307C1396.566,340.584,1396.73,340.5,1396.981,340.426Zm.609,19.279.029-.009C1397.984,360.035,1397.856,359.912,1397.589,359.705Zm-.822-.583c-.122,0-.138.048-.123.109.106-.048.314.045.53.181C1397.157,359.3,1397.072,359.185,1396.768,359.122Zm45.5-6.955-.143-.154C1442.575,352.066,1442.42,352.114,1442.263,352.167Z" fill="#fff"/>
          <path id="Path_535" data-name="Path 535" d="M1396.588,341.575a1.553,1.553,0,0,1-.266,0C1396.366,341.628,1396.45,341.638,1396.588,341.575Z" fill="#fff"/>
          <path id="Path_536" data-name="Path 536" d="M1419.39,342.985l.035.009.043-.06Z" fill="#fff"/>
          <path id="Path_537" data-name="Path 537" d="M1394.9,353.413a.728.728,0,0,1-.2-.34C1394.645,353.142,1394.676,353.249,1394.9,353.413Z" fill="#fff"/>
          <path id="Path_538" data-name="Path 538" d="M1391.656,357.294l.623.2a1.105,1.105,0,0,1-.458-.361C1391.795,357.216,1391.838,357.375,1391.656,357.294Z" fill="#fff"/>
          <path id="Path_539" data-name="Path 539" d="M1387.8,352.876c-.106,0-.182-.081-.284-.085l-.069.158C1387.817,353.114,1388.134,353.123,1387.8,352.876Z" fill="#fff"/>
          <path id="Path_540" data-name="Path 540" d="M1391.739,355.987c.115-.289-.3-.378-.739-.528l.07.034C1390.734,355.8,1391.24,355.9,1391.739,355.987Z" fill="#fff"/>
          <path id="Path_541" data-name="Path 541" d="M1390.9,355.418a2.128,2.128,0,0,1-.38-.177C1390.389,355.368,1390.659,355.346,1390.9,355.418Z" fill="#fff"/>
          <path id="Path_542" data-name="Path 542" d="M1395.512,358.733c-.152-.166-.32.281-.36.116C1394.736,359.083,1396.672,359.075,1395.512,358.733Z" fill="#fff"/>
          <path id="Path_543" data-name="Path 543" d="M1391.934,354.952l-.05.4.384-.151Z" fill="#fff"/>
          <path id="Path_544" data-name="Path 544" d="M1394.982,356.768l-.592-.411c-.017.061-.122.048-.241.028C1394.545,356.593,1394.943,356.871,1394.982,356.768Z" fill="#fff"/>
          <path id="Path_545" data-name="Path 545" d="M1394.149,356.385a1.371,1.371,0,0,0-.549-.206A3.2,3.2,0,0,0,1394.149,356.385Z" fill="#fff"/>
          <path id="Path_546" data-name="Path 546" d="M1392.876,355.29l.15.162.442.249Z" fill="#fff"/>
          <path id="Path_547" data-name="Path 547" d="M1401.9,360.254l.1.034,1.045.347-.547-.749-.4-.565c-.163-.026-.14.185.041.418l.219.191.318.277-.6-.048C1401.954,360.151,1401.874,360.166,1401.9,360.254Z" fill="#fff"/>
          <path id="Path_548" data-name="Path 548" d="M1400.282,358.3c.156.16.12.242.169.4l.254-.4Z" fill="#fff"/>
          <path id="Path_549" data-name="Path 549" d="M1402.393,359.216a.576.576,0,0,1,.221-.007l-1.334,1.074c-.239-.185-.547-.465-.235.077l1.683-1.364-.042-.013C1402.558,359.059,1401.8,358.805,1402.393,359.216Z" fill="#fff"/>
          <path id="Path_550" data-name="Path 550" d="M1394.658,351.738l.17.1.395-.666Z" fill="#fff"/>
          <path id="Path_551" data-name="Path 551" d="M1389.635,344.625c-.883,1.163.29.478-.546,1.465.036.308.678-.8.671-.47C1389.957,344.881,1390.283,344.543,1389.635,344.625Z" fill="#fff"/>
          <path id="Path_552" data-name="Path 552" d="M1389.76,345.621l-.074.377A1.282,1.282,0,0,0,1389.76,345.621Z" fill="#fff"/>
          <path id="Path_553" data-name="Path 553" d="M1472.194,371.183l.319.491-.091-.426Z" fill="#fff"/>
          <path id="Path_554" data-name="Path 554" d="M1473.458,371.514l-.264.431.6-.077C1473.677,371.8,1473.454,371.657,1473.458,371.514Z" fill="#fff"/>
          <path id="Path_555" data-name="Path 555" d="M1398.884,342.171l-.033.122c.108.114.255.109.547.09Z" fill="#fff"/>
          <path id="Path_556" data-name="Path 556" d="M1407.331,342.125l-.145-.01.272.44Z" fill="#fff"/>
          <path id="Path_557" data-name="Path 557" d="M1414.443,341.622c-.282-.045-.632.068-.924.041C1414.158,341.583,1414.482,342.162,1414.443,341.622Z" fill="#fff"/>
        </g>
      </g>
      <path id="Color_Overlay" data-name="Color Overlay" d="M1473.458,371.514c0,.144.219.283.333.354l-.6.077Zm-1.265-.33.229.066.091.426Zm.4-.535c-.315-.266-.643-.532-.935-.452l-.868-1.426c-.088.164-.477.182-.325.393-.309-.249-.589-.463-.375.07a16.983,16.983,0,0,0-4.041-4.255,40.939,40.939,0,0,1-4.747-3.419c-.239-.109-.222.114-.2.261-.2-.5-.437-.43-.676-.362a.559.559,0,0,1-.389.02l-.473-1.126c-.464-.065-.308.287-.411.374-1.689-.975-2.9-2.623-4.591-2.93-.329-.436.4-.4-.169-.779.246.531-.312.324-.846.118-.428-.166-.842-.332-.815-.117-.287-.872-2.033-1.169-1.3-1.908-.691-.42-.8.078-.64.263a5.526,5.526,0,0,0-2.313-.864c-.305-.555-3.966-1.562-4.487-2.466.238.464.064.379-.272.294a1.819,1.819,0,0,0-.471-.066l.289.57-1.133-.467c-.256-.049-.317-.085-.3-.121-.192-.094.14-.216-.316-.506-.776-.309-.9-.1-1.419-.055l.1.107-.544-.158c-.39-.158,1.544.108.342-.576-.066.106-1.02.369-1.253-.05.648.262.673-.055.476-.258l-.91-.374.113.629a48.061,48.061,0,0,0-8.274-2.745c.165-.456-2.069-.525-1.636-1.148l.1.1c.74.107-.074-.6-.692-.659.567.368-1.264.419.21.883l-1.231.044c-.527.632-1.458.265-2.513-.1a5.14,5.14,0,0,0-2.409-.414.289.289,0,0,0,.2-.142,6.029,6.029,0,0,1-2.471-.306,3.929,3.929,0,0,0-1.418-.321l-.1-.391a4.191,4.191,0,0,1-3.173,0c.023-.058.22-.139-.026-.25a2.949,2.949,0,0,1-1.926.319l.052-.113-1.741.049c.024-.561-.7-.4-1.5-.248-.83.161-1.742.322-2-.307-.347.329-1.62.422-2.18.58.009.073-.075.139-.267.2-.038-.08.068-.143.267-.2-.005-.049-.043-.1-.136-.151-.4.377-1.046.21-1.654.042a3.232,3.232,0,0,0-1.024-.181c-.479.142-.254.337-.037.534a2.465,2.465,0,0,0-1.833.29c-.5.221-.923.444-1.087.365-.693.031-.294-.411-.51-.638-1.188.248.654.969-1.52.761.28-.086.765-.18.573-.227a2.368,2.368,0,0,1-1.258-.461c-.477-.3-.9-.59-1.266-.4l.319.17a2.379,2.379,0,0,1-1.571-.021,1.179,1.179,0,0,0-1.4.2l-.211.23c.013.043-.022.094-.12.146l-.007.042.317.116c.306.164-.145.059-.544.172a.351.351,0,0,0,.227-.288l-.1-.03c-.1-.021-.188-.037-.272-.049a1.511,1.511,0,0,1-.135.482,1.052,1.052,0,0,1,.28-.116l-.3.147-.04.058,0-.037c-.151.087-.271.205-.208.358a.8.8,0,0,0-.446.932c.007.272.955.1.774.537-.037-.095-.152-.166-.361-.092.646.161,1.022.811,1.682.734l.128-.313a9.882,9.882,0,0,1,2.221,1.065l.256-.3a22.512,22.512,0,0,0,2.066,1.2c.664.545,1.172,1.19,1.125,1.711.423-.009,1.017,1.207,1.533,1.611l-.134.294c.542.624.733,1.107,1.092,1.473l-.046-.245a1.493,1.493,0,0,1,.6,1.119,4.471,4.471,0,0,0-.552-.874,7.489,7.489,0,0,0,1.541,3.2l2.654,4.033-5.316-1.882a7.092,7.092,0,0,1-.984-.417l.027-.079-1.339-.429c.455-.069-.337.043-.671-.2a2.886,2.886,0,0,1-1.431-.842l-.782-.4c.972.258.151-.4.274-.717l-.638-.012c-.12-.241.459-.075.122-.316-.429-.01-1.415-.512-1.907-.361a.774.774,0,0,0,.2.359c.055,0,.051.009.01.012l.022.034-.031-.031a1.127,1.127,0,0,0-.209.044l.22.146c-.268-.069-.277-.112-.22-.146-.583-.367-.425-.138-.478.005-.42-.763-.968-.7-1.211-1.377.074.336-.326.129-.739-.079s-.869-.428-.812-.04c-.256-.722-.351-.2-.454-.757a4.99,4.99,0,0,0,2.383.524l-.427-.568c.393-.186.726.1,1.022.393.232.227.441.454.64.454-.291,0-.717-.339-.721-.485l-.077.456a4.469,4.469,0,0,0,2.311.688c-.231-.2-.05-.183.175-.168.243.016.536.031.412-.22l-.479-.172c-.12-.242.386-.149.706-.147,1.228.98,3.947,1.989,4.268,2.559a1.979,1.979,0,0,0-1.124-.425l.563.5c-.543-.248-.761-.814-1.628-1.075-.013.323-.788.39-.388,1.036a1.732,1.732,0,0,0,1.56.526,2.7,2.7,0,0,1,1.475.238c0-.064.116.019.242.119l.064.034.806-.652c-.071-.153-.052-.262.068-.243l.085.118.294-.238a.246.246,0,0,0-.08.013c-.4-.275-.189-.253.032-.23l-.045-.044a3.877,3.877,0,0,0-.72-.5,1.286,1.286,0,0,0-1.162-.159l.032.03.175,0-.065.1c.439.413,1.108,1.11.778,1.388-.438-.413-.969-1.161-1.269-1.069.083-.242.18-.224.276-.13a.457.457,0,0,0-.144-.3l.133,0c-.057-.031-.11-.059-.157-.091.322.119.187-.468.243-.632a8.591,8.591,0,0,0-1.759-2.793c.014-.1.038-.327.167-.386-.592-.41-1.809-.513-1.874-.093-.5-.535-.388-.732-1.033-.954.321.526.226.383.008.24-.156-.1-.375-.205-.548-.059-.581-.283-.032-.315-.22-.566-.122-.013-.445-.01-.536.1-.127-.544,1.264-.419,1.125-1.046a9.226,9.226,0,0,0-1.247-1.769,3.667,3.667,0,0,0-1.184,2.578c-.185.239-.334-.591-.557-.777-.829-.763-2-.23-2.891-.7l.977.024a5.216,5.216,0,0,0-2-.408c.19-.114,1.635-.392,1.468-.649a9.431,9.431,0,0,0-2.526-.364.623.623,0,0,0-.823-.416l-.11.368c-.014.193-.365.573.3.552l1.664.243c-.161.154-.929.068-1.643-.016a4.4,4.4,0,0,0-1.3-.07l1.647-2.569c-.167.325-.541,1.23-.021.8.542-.993.4-.548,1.009-1.2a2,2,0,0,0,.61,1.484c.127.184.434.257,1.121.131.545-.072.976-.153,1.287-.224l-1.093-.049.448-.28c-.163-.4-1.577-1.349-1.77-1.9a.89.89,0,0,1,.894-.439,1.015,1.015,0,0,1,.068-.108c.13-.185.291-.371-.208-.227l-.385.341a18.582,18.582,0,0,1,1.254-1.5,1.406,1.406,0,0,1,.443-1.2l-.513.325c.148-.319,1.082-1.2.86-1.2a1.276,1.276,0,0,1,.537.008c.14-.173.3-.357.46-.54l.038-.572a.115.115,0,0,1,0-.031l0,.031c.006.082.1.182.221.282.146-.161.287-.314.414-.449-.1-.15-.226-.246-.339-.214a4.233,4.233,0,0,1,1.219-.491,1.173,1.173,0,0,1,.263-.384.939.939,0,0,0-.616-.093,2.376,2.376,0,0,1,.823-.879c-.137-.4-.007-.945.733-1.5-.072.179-.321.434-.12.432s.329-.268.382-.365c.186.013-.064.328.2.4.269-.934,1.131-.921,1.97-1.822-.158.307.044.286.261.312l.1-.078c-.03-.2.247-.311.524-.4.165-.12.327-.233.482-.337a.823.823,0,0,0-.188-.111,13.6,13.6,0,0,0,2.057-1.236l1.416,2.144-.178.118c-.082.312-.2.585-.646.607a1.261,1.261,0,0,0,.529-.528c-.427.288-.844.581-1.238.851a.317.317,0,0,0,.159.459c-.418.119-.643.416-.857.1l-.942,1.288c.037-.128-.031-.36-.431-.125a3.6,3.6,0,0,0,.908-.97,2.543,2.543,0,0,1-.986.381.243.243,0,0,0-.108,0c-.278.59-.447,1.15-.677,1.67-.1.059-.617.249-.883.364-.022.043-.046.091-.071.143l.105.068-.129-.021c-.054.115-.114.253-.183.42.047-.252.026-.393-.06-.458l-.26-.041-.02,0c.05.142.124.224.051.226a.255.255,0,0,1-.188-.1.235.235,0,0,0-.009.226.924.924,0,0,1-.3-.07l-.068.445a1.465,1.465,0,0,0,.336-.1l-.351.2-.044.284-.271-.105-.142.08c.419.373.3.332.68.531a8.064,8.064,0,0,0-.939.339c.49-.126,0,.254-.532.633-.05.037-.1.073-.153.109-.051.116-.108.23-.161.34a15.033,15.033,0,0,0,1.693-.8c-.13.075-.387.225-.339.226l.967-.495c-.14.154-.718.347-.7.516,1.068-.415,1.388-.65,1.607-.49.527-.158.431-.816.651-.763-.16.328-.315.72-.016.735.2-.246.226-.495.371-.646l.009.479c.365-.068,1-.227.985.142a1.512,1.512,0,0,1,1.067-.216c.885-.359-.742-.9-.977-1.058.933.255,1.533-.021,2.079.491l-.778.219a1.938,1.938,0,0,0,1.384-.089c.374-.176.525-.353,1.012.244-.582-.069-1.255.27-.905.5l.823-.274c.1.126-.475.091-.086.234a5.789,5.789,0,0,0,.915-.5l-.01.033,1.375-.071c-.167.032-.167.155.069.169l.983-.242c-.3.117.011.266.459.346a1.11,1.11,0,0,0,1.034-.342c.258-.256.425-.511.975-.235a.354.354,0,0,0-.155.019.394.394,0,0,1-.157.021l.5.215c.135-1.014,3.018-.087,3.174-1.1.711.415.033.238-.923.715l.76.293a2.543,2.543,0,0,1-.358.009,1.785,1.785,0,0,0-.56.05,3.077,3.077,0,0,0,2.546-.363c.376.168-.356.723.75.641,1.567-.011-.227-.777.709-.78l.632.606a6.963,6.963,0,0,1,3.071.4.8.8,0,0,0,.414-.1,3.827,3.827,0,0,0,1.713.039,3.215,3.215,0,0,1,1.383,0c-.205.083.407.382.476.522l1.474-.142c-.631.067-.659.362-.828.633a8.232,8.232,0,0,0,1.017-.111c-.206.084-.418.165-.2.331,0,0,1.5-.306,1.6-.281a.9.9,0,0,0-.381-.16,3.789,3.789,0,0,1,1.7.451c-.068.1-.281.162-.346.268-.377-.436-.687-.22-.971-.051,1.037.2.243.133.685.464.72.158,1.108-.158.976-.452a3.14,3.14,0,0,0,1.93.348l-.253.367.791.056-.737.338c.694.314.8.158.939,0s.292-.31,1.074,0l-.093.354a1.656,1.656,0,0,0,.585-.112c.331-.112.58-.226.822.13.671-.065-.9-.746.553-.474a3.506,3.506,0,0,0,1.094.678c.454-.04-.086-.41-.421-.5,2.072.385.894,1.478,2.925,1.5-.573-.416.778-.533-.793-.906a1.7,1.7,0,0,1,1.045.409,1.669,1.669,0,0,0,1.117.406l-.636.257a1.611,1.611,0,0,0,.626.064c.063,0,.118,0,.161,0l-.183.31a1.708,1.708,0,0,1,1.224.232c.412.212.762.424,1.226.109-.614.467.7.22.978.591a2.856,2.856,0,0,1-1.265-.216c-.555-.186-1.041-.373-1.219-.074.289.3.707.137.986.426a2.18,2.18,0,0,0-.8.1,2.738,2.738,0,0,0,1.954.442,3.752,3.752,0,0,1,.76.005l-1.3-.331c.174-.283.336-.221.534-.158a.656.656,0,0,0,.584-.034c.5.528,1.17.278,1.6.642a.36.36,0,0,0-.145-.024.348.348,0,0,1-.117-.015c1.331.5,1.324,1.5,1.845,1.722.488.26,1.625.33,1.37-.031.5.007-1.871-.5-.777-.922.383,1.144,1.793.184,3.107,1.6-.413-.036-.375.122-.316.28s.145.327-.225.276a1.791,1.791,0,0,0,1.332.158l.093.367c1.286-.057.49-.374,2.163.095-.314-.035-.2.141-.072.318s.234.331,0,.322a2.816,2.816,0,0,0,1.244.367l-.074,0c1.6.648,1.071.942,2.619,1.373l-.053-.217c2.131.438,4.1,2.154,5.964,3.161l-.488-.473c.271.207,1.324.566,1.688,1.1a2.34,2.34,0,0,1-.444-.209c-.094.161-.053.534.338.854l.341-.125.035.293c.319.216.334.1.349-.014s.031-.23.35-.013c-.13.916,2.7,1.941,2.79,2.881.819-.176-1.155-.876-.333-.982a2.013,2.013,0,0,0,.538.661l.09-.377c1.765,1.524,2.128,2.451,3.764,3.706l-.115.005c.459.583.8.8,1.268.785,0,.1-.1.095-.2.088s-.212-.016-.149.14c1.63.188,1.463,2.175,2.511,2.233-.594.446.148,2.017-.795,1.957l.453.282a.284.284,0,0,1-.119.025C1473.142,371.116,1472.875,370.882,1472.6,370.649Zm-71.3-10.382c-.045.063-.484.267.393.547l.006,0,.55-.445-.249-.083-.1-.034c-.024-.089.056-.1.171-.094l.4.031.094-.076-.212-.185-.22-.191a1.079,1.079,0,0,1-.065-.094Zm1.172-1.064h.02a1.2,1.2,0,0,1,.121.006l-.382.307.266.372.131.178.467-.377-.006,0-.016-.015-.019-.024-.044-.052-.089-.1-.184-.2-.17-.166Zm-4.883.5c.267.207.394.33.029-.009Zm2.892-1.042c.022.028.045.059.067.089.138.194.256.387.3-.034a1.014,1.014,0,0,0-.228-.275Zm41.782-6.5c.157-.054.312-.1-.142-.154Zm-51.809-5.652a.819.819,0,0,1,.207.171c.023-.038.044-.076.064-.112-.064-.009-.131-.02-.2-.032l.155-.077C1390.592,346.486,1390.518,346.5,1390.453,346.515Zm10.235-3.567c.387.074.6.252.819-.191a.216.216,0,0,0-.168-.067A1.9,1.9,0,0,0,1400.688,342.949Zm-5.237-2.493-.03.213c.143.094.284.184.4.275l.249-.081,0-.083c-.072-.21-.146-.419-.346-.419A.567.567,0,0,0,1395.451,340.456Zm-.342-.113-.04.076a4.248,4.248,0,0,0,.347.247c-.055-.186-.1-.346-.221-.346A.2.2,0,0,0,1395.109,340.342Zm-.314-.21c.077-.052.158-.105.248-.159a.959.959,0,0,1-.347-.346A.618.618,0,0,0,1394.795,340.133Zm5.66-1.884.043.005-.016-.023Zm70.016,30.916.417.333A1.39,1.39,0,0,1,1470.47,369.165Zm-7.779-10.238c.064.031.1.061.063.092Zm-67.541-.077c.02.082.072.012.138-.059s.146-.14.222-.058c.644.19.335.276,0,.276C1395.248,359.009,1394.966,358.953,1395.151,358.849Zm-.644-.329s.01-.033-.031-.076a2.12,2.12,0,0,0,.418.242Zm-.005,0a.275.275,0,0,1-.089-.025c-.057-.025-.082-.051.094.025Zm-.325-.328a2.24,2.24,0,0,1,.3.252A3.743,3.743,0,0,1,1394.177,358.191Zm8.771-1.1a4.027,4.027,0,0,1,.317,1.042C1402.942,358.12,1403.023,357.638,1402.948,357.089Zm58.005.684.051.049A.227.227,0,0,1,1460.953,357.773Zm-69.233-.459c.108.018.079-.11.1-.177a1.1,1.1,0,0,0,.458.36Zm-.063-.021.063.021A.283.283,0,0,1,1391.656,357.294Zm61.077-.274c.007.024.014.049.02.073A.273.273,0,0,1,1452.733,357.02Zm-58.584-.634c.118.019.223.032.24-.029l.592.41a.038.038,0,0,1-.041.022A4.361,4.361,0,0,1,1394.15,356.386Zm-.09.285a.235.235,0,0,1-.19.084A.309.309,0,0,0,1394.06,356.671Zm-.46-.491a1.377,1.377,0,0,1,.55.206A3.188,3.188,0,0,1,1393.6,356.18Zm-4.3-.055.2-.234.224.243Zm1.767-.632-.07-.034c.435.15.853.239.739.528C1391.24,355.9,1390.734,355.8,1391.071,355.493Zm1.956-.041-.15-.162.592.411Zm-4.8-.148.506.092-.815.139Zm2.3-.063a2.149,2.149,0,0,0,.38.177C1390.658,355.346,1390.389,355.368,1390.522,355.241Zm1.412-.289.334.247-.384.151Zm-4.5.171a2.535,2.535,0,0,0-.637-.761l.259.087-.1,0,1.188.631.04-.041.02.076-.058-.032a.447.447,0,0,1-.313.086A2.433,2.433,0,0,1,1387.429,355.123Zm1.36-1.75c.421.564,1.244.666,1.445.427.152.166-.166.157-.2.239l.794.172c-.114.557-1.533.05-1.4.531-.3-.323-.024-.48-.894-.733-.644-.015.352.723.481.961-.691-.137-.753-.037-.841.066C1387.953,354.314,1388.1,353.281,1388.789,353.372Zm9.937,1.4.016.016a.214.214,0,0,1-.006.056A.248.248,0,0,1,1398.726,354.775Zm-13.2-.835.015.031a3.579,3.579,0,0,0-.652-.494,4.6,4.6,0,0,0,.8.306c-.763-.586.94-.041-.36-.589a.88.88,0,0,0,.475,0c.154-.039.283-.077.726.13.178.477-.487.307-.851.49a5.756,5.756,0,0,1,1.107.546Zm.155-.124-.116.081-.029-.006c-.048-.046-.038-.018-.013.04l0,.006.006,0,0-.01.041-.033C1385.694,353.919,1385.991,354.04,1385.685,353.815Zm-.14.155.355.372a.052.052,0,0,1-.023.005C1385.781,354.347,1385.618,354.11,1385.546,353.97Zm-1.7-.2,1.04.238A4.9,4.9,0,0,1,1383.849,353.772Zm-2.237-.66c.315.077.223-.051.161-.18s-.092-.236.233-.194a5.562,5.562,0,0,0,1.843,1.034A10.961,10.961,0,0,1,1381.612,353.112Zm1.777-.176c-.61-.289-.193-.285-.03-.32l-1.018-.442a2.29,2.29,0,0,1,.99.359c.14.053.1.065.028.083a16.576,16.576,0,0,1,1.534.86A7.108,7.108,0,0,0,1383.389,352.936Zm11.318.137a.722.722,0,0,0,.2.34C1394.676,353.249,1394.645,353.142,1394.707,353.073Zm-7.259-.123.068-.158c.1,0,.179.087.284.085.181.133.171.193.067.193A1.219,1.219,0,0,1,1387.447,352.949Zm-5.9-.948c0,.052-.026.079-.083-.024l.083.024a.305.305,0,0,0-.034-.116l.828.288A6,6,0,0,1,1381.548,352Zm1.239-.508a.953.953,0,0,1,.957.167l.152-.118.31.473Zm-1.391.357a.077.077,0,0,1,.118.034Zm13.262-.114.565-.566-.4.665Zm-15.512-.284c-.374-.048-.27-.209-.215-.289l0,.175c.018.1.445.116.39.129l.655.173Zm-.214-.334c.036-.01.023.01,0,.045Zm1.673-.656-.742.39a3.169,3.169,0,0,1,1-.7l-.256.312.023-.013-.6.69Zm.32-.388c.035.024.01.043-.065.076Zm.588-.11.269-.286-.161.363Zm.672-1.138c-.054.165.076.142.194.119a.594.594,0,0,1,.113-.015l-.709.75Zm.156.727.111-.033a.352.352,0,0,1-.1.04C1382.343,349.561,1382.34,349.559,1382.341,349.555Zm1.545-.987.02-.1c.588-.464.388.013.37.18a.184.184,0,0,0,.106-.017c-.107.123-.122.093-.106.017-.128-.016,0-.268-.291-.073-.262.263-.17.362-.177.45a12.8,12.8,0,0,1-1.356.494A10.224,10.224,0,0,0,1383.886,348.567Zm56.309.228c.253.008.384.034.05.056Zm-57.744-.81c-.175,0-.545.193-.7.193a.077.077,0,0,1-.051-.013c.224,0,.751-.53,1.062-.778l-.314.6c.164,0,.159.154-.427.841Zm1.507-1.005c-.27.772.253.383.23.77a.97.97,0,0,1-.436.22C1383.514,347.971,1383.8,347.394,1383.958,346.98Zm5.131-.889c.837-.987-.337-.3.546-1.465.648-.083.321.256.125,1,0-.165-.158.033-.324.231-.122.147-.247.292-.309.292C1389.107,346.145,1389.093,346.128,1389.089,346.091Zm-3.535-1.26-.305,1.041-.12.156Zm4.207.79a1.276,1.276,0,0,1-.074.377Zm44.137.049a.51.51,0,0,1,.106.019Zm-48.96-.512-.114.274C1384.8,345.215,1384.867,345.17,1384.937,345.158Zm.072,0a.387.387,0,0,0-.072,0l.256-.58c-.073.27-.021.457-.125.321.1.229.061.265-.009.265C1385.044,345.164,1385.027,345.163,1385.009,345.161Zm-.446-.743c-.043.2.3-.168.473-.192l-.2.553a1.111,1.111,0,0,1-.31.077C1384.391,344.857,1384.38,344.747,1384.563,344.417Zm.917-.059c.617-.879,1.027-.772.409.107C1386.1,343.915,1385.777,344.181,1385.48,344.358Zm.233-.867.272-.312c-.135.045-.114-.005-.062-.055.074-.071.21-.141.062.055l.1-.035a4.269,4.269,0,0,0-.287.49S1385.846,343.5,1385.713,343.491Zm38.775-.08-.014,0Zm.022,0-.022,0Zm-35.674-1.011-.084.4-.391.231C1388.205,342.942,1388.8,342.593,1388.836,342.4Zm30.554.586.078-.051-.043.059Zm.5-.334-.426.283C1419.539,342.776,1419.3,342.581,1419.895,342.651Zm-15.709-.084c.1,0,.054.065-.052.143Zm1.444.1-.131.007A.5.5,0,0,1,1405.63,342.665Zm1.248-.151-.328.085A1.484,1.484,0,0,1,1406.878,342.514Zm.308-.4.145.01.127.43Zm-19.13.414h-.023a11.574,11.574,0,0,0,1.495-2.167l.152.51-.179.02c-.6.442-.778,1.637-1.444,1.637Zm10.8-.237.033-.121.514.211c-.092.006-.168.011-.235.011A.386.386,0,0,1,1398.851,342.293Zm15.246-.538a1.276,1.276,0,0,0-.347-.094c.068-.005.137-.014.206-.022a1.828,1.828,0,0,1,.487-.016c.013.176-.014.232-.076.232A1.036,1.036,0,0,1,1414.1,341.754Zm-17.337-.126-.473.221Zm16.759.034a.992.992,0,0,1,.23,0c-.046,0-.091.006-.136.006S1413.55,341.665,1413.519,341.663Zm-17.2-.086a1.645,1.645,0,0,0,.266,0,.405.405,0,0,1-.164.044A.129.129,0,0,1,1396.322,341.576Zm-3.386-.258-.045.021A.184.184,0,0,1,1392.936,341.318Zm-2.395-2.065.059.138-.2.549Zm2.056-4.029c.018.07.341.189.153.373.015.009.008.015-.011.015C1392.666,335.611,1392.427,335.527,1392.6,335.223Z" fill="#cf5727"/>
    </g>
  </g>
</svg>
