<svg xmlns="http://www.w3.org/2000/svg" width="104.981" height="70.68" viewBox="0 0 104.981 70.68">
  <g id="Vector_Smart_Object_copy_2" data-name="Vector Smart Object copy 2" transform="translate(-885.019 -1104.999)">
    <g id="Vector_Smart_Object_copy_2-2" data-name="Vector Smart Object copy 2" transform="matrix(0, 1, -1, 0, 1221.911, 512.258)">
      <g id="Group_97" data-name="Group 97">
        <g id="Group_63" data-name="Group 63">
          <g id="Group_53" data-name="Group 53">
            <path id="Path_237" data-name="Path 237" d="M596.835,233.938a2.047,2.047,0,1,1-2.047-2.027A2.037,2.037,0,0,1,596.835,233.938Z" fill="#242c36"/>
          </g>
          <g id="Group_54" data-name="Group 54">
            <path id="Path_238" data-name="Path 238" d="M611.647,235.954a2.027,2.027,0,1,1,1.823-2.226A2.042,2.042,0,0,1,611.647,235.954Z" fill="#242c36"/>
          </g>
          <g id="Group_55" data-name="Group 55">
            <path id="Path_239" data-name="Path 239" d="M628.294,235.954a2.027,2.027,0,1,1,1.823-2.226A2.042,2.042,0,0,1,628.294,235.954Z" fill="#242c36"/>
          </g>
          <g id="Group_56" data-name="Group 56">
            <path id="Path_240" data-name="Path 240" d="M661.587,235.954a2.027,2.027,0,1,1,1.823-2.226A2.042,2.042,0,0,1,661.587,235.954Z" fill="#242c36"/>
          </g>
          <g id="Group_57" data-name="Group 57">
            <path id="Path_241" data-name="Path 241" d="M644.94,235.954a2.027,2.027,0,1,1,1.823-2.226A2.042,2.042,0,0,1,644.94,235.954Z" fill="#242c36"/>
          </g>
          <g id="Group_58" data-name="Group 58">
            <path id="Path_242" data-name="Path 242" d="M596.835,248.335a2.047,2.047,0,1,1-2.047-2.026A2.037,2.037,0,0,1,596.835,248.335Z" fill="#242c36"/>
          </g>
          <g id="Group_59" data-name="Group 59">
            <path id="Path_243" data-name="Path 243" d="M611.647,250.35a2.027,2.027,0,1,1,1.823-2.226A2.042,2.042,0,0,1,611.647,250.35Z" fill="#242c36"/>
          </g>
          <g id="Group_60" data-name="Group 60">
            <path id="Path_244" data-name="Path 244" d="M628.294,250.35a2.027,2.027,0,1,1,1.823-2.226A2.042,2.042,0,0,1,628.294,250.35Z" fill="#242c36"/>
          </g>
          <g id="Group_61" data-name="Group 61">
            <path id="Path_245" data-name="Path 245" d="M661.587,250.35a2.027,2.027,0,1,1,1.823-2.226A2.042,2.042,0,0,1,661.587,250.35Z" fill="#242c36"/>
          </g>
          <g id="Group_62" data-name="Group 62">
            <path id="Path_246" data-name="Path 246" d="M644.94,250.35a2.027,2.027,0,1,1,1.823-2.226A2.042,2.042,0,0,1,644.94,250.35Z" fill="#242c36"/>
          </g>
        </g>
        <g id="Group_74" data-name="Group 74">
          <g id="Group_64" data-name="Group 64">
            <path id="Path_247" data-name="Path 247" d="M596.835,263.662a2.047,2.047,0,1,1-2.047-2.027A2.037,2.037,0,0,1,596.835,263.662Z" fill="#242c36"/>
          </g>
          <g id="Group_65" data-name="Group 65">
            <path id="Path_248" data-name="Path 248" d="M611.647,265.678a2.027,2.027,0,1,1,1.823-2.226A2.042,2.042,0,0,1,611.647,265.678Z" fill="#242c36"/>
          </g>
          <g id="Group_66" data-name="Group 66">
            <path id="Path_249" data-name="Path 249" d="M628.294,265.678a2.027,2.027,0,1,1,1.823-2.226A2.042,2.042,0,0,1,628.294,265.678Z" fill="#242c36"/>
          </g>
          <g id="Group_67" data-name="Group 67">
            <path id="Path_250" data-name="Path 250" d="M661.587,265.678a2.027,2.027,0,1,1,1.823-2.226A2.042,2.042,0,0,1,661.587,265.678Z" fill="#242c36"/>
          </g>
          <g id="Group_68" data-name="Group 68">
            <path id="Path_251" data-name="Path 251" d="M644.94,265.678a2.027,2.027,0,1,1,1.823-2.226A2.042,2.042,0,0,1,644.94,265.678Z" fill="#242c36"/>
          </g>
          <g id="Group_69" data-name="Group 69">
            <path id="Path_252" data-name="Path 252" d="M596.835,278.06a2.047,2.047,0,1,1-2.047-2.027A2.037,2.037,0,0,1,596.835,278.06Z" fill="#242c36"/>
          </g>
          <g id="Group_70" data-name="Group 70">
            <path id="Path_253" data-name="Path 253" d="M611.647,280.076a2.027,2.027,0,1,1,1.823-2.226A2.042,2.042,0,0,1,611.647,280.076Z" fill="#242c36"/>
          </g>
          <g id="Group_71" data-name="Group 71">
            <path id="Path_254" data-name="Path 254" d="M628.294,280.076a2.027,2.027,0,1,1,1.823-2.226A2.042,2.042,0,0,1,628.294,280.076Z" fill="#242c36"/>
          </g>
          <g id="Group_72" data-name="Group 72">
            <path id="Path_255" data-name="Path 255" d="M661.587,280.076a2.027,2.027,0,1,1,1.823-2.226A2.042,2.042,0,0,1,661.587,280.076Z" fill="#242c36"/>
          </g>
          <g id="Group_73" data-name="Group 73">
            <path id="Path_256" data-name="Path 256" d="M644.94,280.076a2.027,2.027,0,1,1,1.823-2.226A2.042,2.042,0,0,1,644.94,280.076Z" fill="#242c36"/>
          </g>
        </g>
        <g id="Group_85" data-name="Group 85">
          <g id="Group_75" data-name="Group 75">
            <path id="Path_257" data-name="Path 257" d="M596.835,290.742a2.047,2.047,0,1,1-2.047-2.027A2.038,2.038,0,0,1,596.835,290.742Z" fill="#242c36"/>
          </g>
          <g id="Group_76" data-name="Group 76">
            <path id="Path_258" data-name="Path 258" d="M611.647,292.758a2.027,2.027,0,1,1,1.823-2.226A2.042,2.042,0,0,1,611.647,292.758Z" fill="#242c36"/>
          </g>
          <g id="Group_77" data-name="Group 77">
            <path id="Path_259" data-name="Path 259" d="M628.294,292.758a2.027,2.027,0,1,1,1.823-2.226A2.042,2.042,0,0,1,628.294,292.758Z" fill="#242c36"/>
          </g>
          <g id="Group_78" data-name="Group 78">
            <path id="Path_260" data-name="Path 260" d="M661.587,292.758a2.027,2.027,0,1,1,1.823-2.226A2.042,2.042,0,0,1,661.587,292.758Z" fill="#242c36"/>
          </g>
          <g id="Group_79" data-name="Group 79">
            <path id="Path_261" data-name="Path 261" d="M644.94,292.758a2.027,2.027,0,1,1,1.823-2.226A2.042,2.042,0,0,1,644.94,292.758Z" fill="#242c36"/>
          </g>
          <g id="Group_80" data-name="Group 80">
            <path id="Path_262" data-name="Path 262" d="M596.835,305.139a2.047,2.047,0,1,1-2.047-2.026A2.037,2.037,0,0,1,596.835,305.139Z" fill="#242c36"/>
          </g>
          <g id="Group_81" data-name="Group 81">
            <path id="Path_263" data-name="Path 263" d="M611.647,307.155a2.027,2.027,0,1,1,1.823-2.225A2.04,2.04,0,0,1,611.647,307.155Z" fill="#242c36"/>
          </g>
          <g id="Group_82" data-name="Group 82">
            <path id="Path_264" data-name="Path 264" d="M628.294,307.155a2.027,2.027,0,1,1,1.823-2.225A2.04,2.04,0,0,1,628.294,307.155Z" fill="#242c36"/>
          </g>
          <g id="Group_83" data-name="Group 83">
            <path id="Path_265" data-name="Path 265" d="M661.587,307.155a2.027,2.027,0,1,1,1.823-2.225A2.04,2.04,0,0,1,661.587,307.155Z" fill="#242c36"/>
          </g>
          <g id="Group_84" data-name="Group 84">
            <path id="Path_266" data-name="Path 266" d="M644.94,307.155a2.027,2.027,0,1,1,1.823-2.225A2.04,2.04,0,0,1,644.94,307.155Z" fill="#242c36"/>
          </g>
        </g>
        <g id="Group_96" data-name="Group 96">
          <g id="Group_86" data-name="Group 86">
            <path id="Path_267" data-name="Path 267" d="M596.835,320.467a2.047,2.047,0,1,1-2.047-2.026A2.037,2.037,0,0,1,596.835,320.467Z" fill="#242c36"/>
          </g>
          <g id="Group_87" data-name="Group 87">
            <path id="Path_268" data-name="Path 268" d="M611.647,322.482a2.027,2.027,0,1,1,1.823-2.226A2.042,2.042,0,0,1,611.647,322.482Z" fill="#242c36"/>
          </g>
          <g id="Group_88" data-name="Group 88">
            <path id="Path_269" data-name="Path 269" d="M628.294,322.482a2.027,2.027,0,1,1,1.823-2.226A2.042,2.042,0,0,1,628.294,322.482Z" fill="#242c36"/>
          </g>
          <g id="Group_89" data-name="Group 89">
            <path id="Path_270" data-name="Path 270" d="M661.587,322.482a2.027,2.027,0,1,1,1.823-2.226A2.042,2.042,0,0,1,661.587,322.482Z" fill="#242c36"/>
          </g>
          <g id="Group_90" data-name="Group 90">
            <path id="Path_271" data-name="Path 271" d="M644.94,322.482a2.027,2.027,0,1,1,1.823-2.226A2.042,2.042,0,0,1,644.94,322.482Z" fill="#242c36"/>
          </g>
          <g id="Group_91" data-name="Group 91">
            <path id="Path_272" data-name="Path 272" d="M596.835,334.864a2.047,2.047,0,1,1-2.047-2.027A2.038,2.038,0,0,1,596.835,334.864Z" fill="#242c36"/>
          </g>
          <g id="Group_92" data-name="Group 92">
            <path id="Path_273" data-name="Path 273" d="M611.647,336.88a2.027,2.027,0,1,1,1.823-2.226A2.042,2.042,0,0,1,611.647,336.88Z" fill="#242c36"/>
          </g>
          <g id="Group_93" data-name="Group 93">
            <path id="Path_274" data-name="Path 274" d="M628.294,336.88a2.027,2.027,0,1,1,1.823-2.226A2.042,2.042,0,0,1,628.294,336.88Z" fill="#242c36"/>
          </g>
          <g id="Group_94" data-name="Group 94">
            <path id="Path_275" data-name="Path 275" d="M661.587,336.88a2.027,2.027,0,1,1,1.823-2.226A2.042,2.042,0,0,1,661.587,336.88Z" fill="#242c36"/>
          </g>
          <g id="Group_95" data-name="Group 95">
            <path id="Path_276" data-name="Path 276" d="M644.94,336.88a2.027,2.027,0,1,1,1.823-2.226A2.042,2.042,0,0,1,644.94,336.88Z" fill="#242c36"/>
          </g>
        </g>
      </g>
    </g>
    <path id="Color_Overlay" data-name="Color Overlay" d="M985.957,1173.846c-.007-.072-.011-.144-.011-.215a2.044,2.044,0,1,1,.011.215Zm-14.4,0c-.007-.072-.011-.144-.011-.215a2.044,2.044,0,1,1,.011.215Zm-15.328,0q-.011-.108-.011-.213a2.044,2.044,0,1,1,.011.213Zm-14.4,0c-.007-.072-.011-.144-.011-.215a2.044,2.044,0,1,1,.011.215Zm-12.683,0c-.007-.072-.011-.144-.011-.215a2.044,2.044,0,1,1,.011.215Zm-14.4,0q-.011-.109-.011-.216a2.044,2.044,0,1,1,.011.216Zm-15.328,0q-.011-.108-.011-.213a2.044,2.044,0,1,1,.011.213Zm-14.4,0c-.007-.072-.011-.144-.011-.215a2.044,2.044,0,1,1,.011.215ZM985.957,1157.2c-.007-.072-.011-.144-.011-.215a2.044,2.044,0,1,1,.011.215Zm-14.4,0c-.007-.072-.011-.144-.011-.215a2.044,2.044,0,1,1,.011.215Zm-15.328,0q-.011-.108-.011-.213a2.044,2.044,0,1,1,.011.213Zm-14.4,0c-.007-.072-.011-.144-.011-.215a2.044,2.044,0,1,1,.011.215Zm-12.683,0c-.007-.072-.011-.144-.011-.215a2.044,2.044,0,1,1,.011.215Zm-14.4,0q-.011-.109-.011-.216a2.044,2.044,0,1,1,.011.216Zm-15.328,0q-.011-.108-.011-.213a2.044,2.044,0,1,1,.011.213Zm-14.4,0c-.007-.072-.011-.144-.011-.215a2.044,2.044,0,1,1,.011.215Zm100.926-16.647c-.007-.072-.011-.144-.011-.214a2.045,2.045,0,1,1,.011.214Zm-14.4,0c-.007-.072-.011-.144-.011-.214a2.045,2.045,0,1,1,.011.214Zm-15.328,0q-.011-.108-.011-.213a2.045,2.045,0,1,1,.011.213Zm-14.4,0c-.007-.072-.011-.144-.011-.214a2.045,2.045,0,1,1,.011.214Zm-12.683,0c-.007-.072-.011-.144-.011-.214a2.045,2.045,0,1,1,.011.214Zm-14.4,0q-.011-.109-.011-.216a2.045,2.045,0,1,1,.011.216Zm-15.328,0q-.011-.108-.011-.213a2.045,2.045,0,1,1,.011.213Zm-14.4,0c-.007-.072-.011-.144-.011-.214a2.045,2.045,0,1,1,.011.214Zm100.926-16.646c-.007-.072-.011-.144-.011-.215a2.044,2.044,0,1,1,.011.215Zm-14.4,0c-.007-.072-.011-.144-.011-.215a2.044,2.044,0,1,1,.011.215Zm-15.328,0q-.011-.108-.011-.213a2.044,2.044,0,1,1,.011.213Zm-14.4,0c-.007-.072-.011-.144-.011-.215a2.044,2.044,0,1,1,.011.215Zm-12.683,0c-.007-.072-.011-.144-.011-.215a2.044,2.044,0,1,1,.011.215Zm-14.4,0q-.011-.109-.011-.216a2.044,2.044,0,1,1,.011.216Zm-15.328,0q-.011-.108-.011-.213a2.044,2.044,0,1,1,.011.213Zm-14.4,0c-.007-.072-.011-.144-.011-.215a2.044,2.044,0,1,1,.011.215Zm100.916-16.859a2.026,2.026,0,1,1,2.026,2.047A2.037,2.037,0,0,1,985.947,1107.047Zm-14.4,0a2.027,2.027,0,1,1,2.028,2.047A2.038,2.038,0,0,1,971.549,1107.047Zm-15.327,0a2.027,2.027,0,1,1,2.027,2.047A2.037,2.037,0,0,1,956.222,1107.047Zm-14.4,0a2.026,2.026,0,1,1,2.025,2.047A2.036,2.036,0,0,1,941.826,1107.047Zm-12.685,0a2.027,2.027,0,1,1,2.028,2.047A2.039,2.039,0,0,1,929.141,1107.047Zm-14.4,0a2.027,2.027,0,1,1,2.028,2.047A2.038,2.038,0,0,1,914.745,1107.047Zm-15.327,0a2.026,2.026,0,1,1,2.027,2.047A2.037,2.037,0,0,1,899.418,1107.047Zm-14.4,0a2.027,2.027,0,1,1,2.028,2.047A2.039,2.039,0,0,1,885.02,1107.047Z" fill="#0c0d24"/>
  </g>
</svg>
