<svg xmlns="http://www.w3.org/2000/svg" width="104.98" height="70.68" viewBox="0 0 104.98 70.68">
  <g id="Vector_Smart_Object_copy_4" data-name="Vector Smart Object copy 4" transform="translate(-1465.019 -273.999)">
    <path id="Color_Overlay" data-name="Color Overlay" d="M1565.957,342.845c-.007-.072-.011-.144-.011-.215a2.028,2.028,0,1,1,2.236,2.038,2.019,2.019,0,0,1-2.226-1.822Zm-14.4,0c-.007-.072-.011-.144-.011-.215a2.043,2.043,0,1,1,.011.215Zm-15.328,0q-.011-.108-.011-.213a2.045,2.045,0,1,1,.011.213Zm-14.4,0c-.007-.072-.011-.144-.011-.215a2.043,2.043,0,1,1,.011.215Zm-12.683,0c-.007-.072-.011-.144-.011-.215a2.045,2.045,0,1,1,.011.215Zm-14.4,0q-.011-.109-.011-.216a2.043,2.043,0,1,1,.011.216Zm-15.328,0q-.011-.108-.011-.213a2.043,2.043,0,1,1,.011.213Zm-14.4,0c-.007-.072-.011-.144-.011-.215a2.045,2.045,0,1,1,.011.215ZM1565.957,326.2c-.007-.072-.011-.144-.011-.215a2.043,2.043,0,1,1,.011.215Zm-14.4,0c-.007-.072-.011-.144-.011-.215a2.043,2.043,0,1,1,.011.215Zm-15.328,0q-.011-.108-.011-.213a2.044,2.044,0,1,1,.011.213Zm-14.4,0c-.007-.072-.011-.144-.011-.215a2.043,2.043,0,1,1,.011.215Zm-12.683,0c-.007-.072-.011-.144-.011-.215a2.044,2.044,0,1,1,.011.215Zm-14.4,0q-.011-.109-.011-.216a2.043,2.043,0,1,1,.011.216Zm-15.328,0q-.011-.108-.011-.213a2.043,2.043,0,1,1,.011.213Zm-14.4,0c-.007-.072-.011-.144-.011-.215a2.044,2.044,0,1,1,.011.215Zm100.926-16.647c-.007-.072-.011-.144-.011-.214a2.044,2.044,0,1,1,.011.214Zm-14.4,0c-.007-.072-.011-.144-.011-.214a2.044,2.044,0,1,1,.011.214Zm-15.328,0q-.011-.108-.011-.213a2.045,2.045,0,1,1,.011.213Zm-14.4,0c-.007-.072-.011-.144-.011-.214a2.044,2.044,0,1,1,.011.214Zm-12.683,0c-.007-.072-.011-.144-.011-.214a2.045,2.045,0,1,1,.011.214Zm-14.4,0q-.011-.109-.011-.216a2.044,2.044,0,1,1,.011.216Zm-15.328,0q-.011-.108-.011-.213a2.044,2.044,0,1,1,.011.213Zm-14.4,0c-.007-.072-.011-.144-.011-.214a2.045,2.045,0,1,1,.011.214ZM1565.957,292.9c-.007-.072-.011-.144-.011-.215a2.043,2.043,0,1,1,.011.215Zm-14.4,0c-.007-.072-.011-.144-.011-.215a2.043,2.043,0,1,1,.011.215Zm-15.328,0q-.011-.108-.011-.213a2.044,2.044,0,1,1,.011.213Zm-14.4,0c-.007-.072-.011-.144-.011-.215a2.043,2.043,0,1,1,.011.215Zm-12.683,0c-.007-.072-.011-.144-.011-.215a2.044,2.044,0,1,1,.011.215Zm-14.4,0q-.011-.109-.011-.216a2.043,2.043,0,1,1,.011.216Zm-15.328,0q-.011-.108-.011-.213a2.043,2.043,0,1,1,.011.213Zm-14.4,0c-.007-.072-.011-.144-.011-.215a2.044,2.044,0,1,1,.011.215Zm100.916-16.859a2.026,2.026,0,1,1,2.026,2.047A2.037,2.037,0,0,1,1565.947,276.046Zm-14.4,0a2.027,2.027,0,1,1,2.028,2.047A2.038,2.038,0,0,1,1551.549,276.046Zm-15.327,0a2.027,2.027,0,1,1,2.027,2.047A2.037,2.037,0,0,1,1536.222,276.046Zm-14.4,0a2.026,2.026,0,1,1,2.025,2.047A2.036,2.036,0,0,1,1521.825,276.046Zm-12.685,0a2.027,2.027,0,1,1,2.028,2.047A2.039,2.039,0,0,1,1509.141,276.046Zm-14.4,0a2.027,2.027,0,1,1,2.028,2.047A2.037,2.037,0,0,1,1494.744,276.046Zm-15.327,0a2.026,2.026,0,1,1,2.027,2.047A2.037,2.037,0,0,1,1479.417,276.046Zm-14.4,0a2.027,2.027,0,1,1,2.028,2.047A2.039,2.039,0,0,1,1465.019,276.046Z" fill="#d6cdc5"/>
  </g>
</svg>

