<svg xmlns="http://www.w3.org/2000/svg" width="101.845" height="80.249" viewBox="0 0 101.845 80.249">
  <g id="Vector_Smart_Object_copy_6" data-name="Vector Smart Object copy 6" transform="translate(-1473.076 -1149.878)">
    <g id="Vector_Smart_Object_copy_6-2" data-name="Vector Smart Object copy 6" transform="matrix(-0.866, 0.5, -0.5, -0.866, 1735.418, 1270.569)">
      <g id="Group_331" data-name="Group 331">
        <g id="Group_327" data-name="Group 327">
          <g id="Group_325" data-name="Group 325">
            <path id="Path_639" data-name="Path 639" d="M188.275,193.739c-5.824,0-8.823-3.3-11.233-5.952-2.365-2.6-3.856-4.077-6.993-4.077s-4.627,1.473-6.993,4.077c-2.409,2.652-5.409,5.952-11.233,5.952s-8.822-3.3-11.231-5.952c-2.366-2.6-3.856-4.077-6.992-4.077s-4.625,1.473-6.991,4.077c-2.409,2.652-5.408,5.952-11.23,5.952s-8.823-3.3-11.232-5.953c-2.365-2.6-3.855-4.076-6.99-4.076a2.865,2.865,0,0,1,0-5.73c5.824,0,8.822,3.3,11.231,5.953,2.366,2.6,3.856,4.075,6.991,4.075s4.625-1.472,6.989-4.075c2.41-2.653,5.408-5.953,11.232-5.953s8.823,3.3,11.233,5.953c2.364,2.6,3.855,4.075,6.99,4.075s4.627-1.472,6.993-4.076c2.409-2.652,5.409-5.952,11.233-5.952s8.823,3.3,11.233,5.952c2.366,2.6,3.857,4.076,6.993,4.076a2.865,2.865,0,0,1,0,5.731Z" fill="#fe9bca"/>
          </g>
          <g id="Group_326" data-name="Group 326">
            <path id="Path_640" data-name="Path 640" d="M188.275,175.832c-5.824,0-8.823-3.3-11.233-5.952-2.365-2.6-3.856-4.077-6.993-4.077s-4.627,1.474-6.993,4.076c-2.409,2.653-5.409,5.953-11.233,5.953s-8.822-3.3-11.231-5.952c-2.366-2.6-3.856-4.077-6.992-4.077s-4.625,1.474-6.991,4.076c-2.409,2.653-5.408,5.953-11.23,5.953s-8.823-3.3-11.232-5.953c-2.365-2.6-3.855-4.076-6.99-4.076a2.865,2.865,0,0,1,0-5.731c5.824,0,8.822,3.3,11.231,5.954,2.366,2.6,3.856,4.075,6.991,4.075s4.625-1.472,6.989-4.075c2.41-2.653,5.408-5.954,11.232-5.954s8.823,3.3,11.233,5.954c2.364,2.6,3.855,4.075,6.99,4.075s4.627-1.473,6.993-4.075c2.409-2.653,5.409-5.954,11.233-5.954s8.823,3.3,11.233,5.954c2.366,2.6,3.857,4.075,6.993,4.075a2.865,2.865,0,0,1,0,5.731Z" fill="#fe9bca"/>
          </g>
        </g>
        <g id="Group_330" data-name="Group 330">
          <g id="Group_328" data-name="Group 328">
            <path id="Path_641" data-name="Path 641" d="M188.753,191.351c-5.824,0-8.823-3.3-11.233-5.952-2.366-2.6-3.857-4.077-6.993-4.077s-4.627,1.473-6.992,4.077c-2.41,2.652-5.409,5.952-11.233,5.952s-8.822-3.3-11.231-5.952c-2.365-2.6-3.855-4.077-6.991-4.077s-4.625,1.473-6.991,4.077c-2.409,2.652-5.408,5.952-11.23,5.952s-8.822-3.3-11.231-5.953c-2.365-2.6-3.855-4.076-6.99-4.076a2.865,2.865,0,0,1,0-5.731c5.824,0,8.822,3.3,11.23,5.954,2.366,2.6,3.856,4.075,6.991,4.075s4.625-1.472,6.99-4.075c2.409-2.653,5.408-5.954,11.232-5.954s8.823,3.3,11.232,5.954c2.365,2.6,3.855,4.075,6.99,4.075s4.627-1.472,6.993-4.076c2.409-2.652,5.408-5.953,11.232-5.953s8.824,3.3,11.233,5.953c2.366,2.6,3.857,4.076,6.993,4.076a2.865,2.865,0,0,1,0,5.731Z" fill="none" stroke="#262626" stroke-linecap="round" stroke-linejoin="round" stroke-width="0.537"/>
          </g>
          <g id="Group_329" data-name="Group 329">
            <path id="Path_642" data-name="Path 642" d="M188.753,173.444c-5.824,0-8.823-3.3-11.233-5.953-2.366-2.6-3.857-4.076-6.993-4.076s-4.627,1.473-6.992,4.076c-2.41,2.653-5.409,5.953-11.233,5.953s-8.822-3.3-11.231-5.953c-2.365-2.6-3.855-4.076-6.991-4.076s-4.625,1.473-6.991,4.076c-2.409,2.653-5.408,5.953-11.23,5.953s-8.822-3.3-11.231-5.953c-2.365-2.6-3.855-4.076-6.99-4.076a2.865,2.865,0,0,1,0-5.731c5.824,0,8.822,3.3,11.23,5.953,2.366,2.6,3.856,4.076,6.991,4.076s4.625-1.473,6.99-4.075c2.409-2.653,5.408-5.954,11.232-5.954s8.823,3.3,11.232,5.953c2.365,2.6,3.855,4.076,6.99,4.076s4.627-1.473,6.993-4.076c2.409-2.652,5.408-5.953,11.232-5.953s8.824,3.3,11.233,5.953c2.366,2.6,3.857,4.076,6.993,4.076a2.865,2.865,0,0,1,0,5.731Z" fill="none" stroke="#262626" stroke-linecap="round" stroke-linejoin="round" stroke-width="0.537"/>
          </g>
        </g>
      </g>
    </g>
    <path id="Color_Overlay" data-name="Color Overlay" d="M1496.239,1219.676c-3.349-1.074-5.377-1.6-8.092-.036a2.865,2.865,0,0,1-4.279-2.8,2.829,2.829,0,0,1-.414-.553,2.866,2.866,0,0,1,1.05-3.914c5.044-2.911,9.289-1.552,12.7-.459,3.349,1.073,5.377,1.6,8.094.036s3.271-3.589,4.019-7.026c.76-3.5,1.71-7.86,6.755-10.771s9.289-1.552,12.7-.458c3.35,1.073,5.377,1.6,8.093.037s3.27-3.588,4.018-7.025c.76-3.5,1.709-7.86,6.753-10.77s9.289-1.552,12.7-.458c3.348,1.073,5.375,1.6,8.091.036a4.343,4.343,0,0,1,3.642,7.271c-5.045,2.911-9.29,1.552-12.7.458-3.349-1.074-5.376-1.6-8.091-.037s-3.271,3.588-4.018,7.025c-.761,3.5-1.71,7.861-6.754,10.772s-9.291,1.552-12.7.458c-3.348-1.074-5.375-1.6-8.09-.037s-3.272,3.588-4.019,7.026c-.762,3.5-1.71,7.86-6.755,10.771a12.3,12.3,0,0,1-6.283,1.749A20.751,20.751,0,0,1,1496.239,1219.676Zm-8.947-15.512c-3.349-1.073-5.377-1.6-8.092-.036a2.864,2.864,0,0,1-4.279-2.8,2.822,2.822,0,0,1-.414-.553,2.866,2.866,0,0,1,1.049-3.914c5.044-2.911,9.29-1.552,12.7-.459,3.349,1.073,5.377,1.6,8.094.037s3.271-3.589,4.019-7.027c.761-3.5,1.711-7.861,6.755-10.771s9.29-1.552,12.7-.457c3.351,1.072,5.377,1.6,8.093.036s3.27-3.588,4.018-7.026c.76-3.5,1.709-7.86,6.752-10.77s9.29-1.551,12.7-.457c3.348,1.073,5.376,1.6,8.091.037a2.864,2.864,0,0,1,4.278,2.8,2.91,2.91,0,0,1,.414.552,2.867,2.867,0,0,1-1.049,3.915c-5.045,2.911-9.29,1.55-12.7.456-3.349-1.072-5.376-1.6-8.091-.035s-3.271,3.587-4.018,7.024c-.761,3.5-1.71,7.861-6.754,10.772s-9.291,1.551-12.7.457c-3.348-1.073-5.375-1.6-8.09-.036s-3.272,3.588-4.019,7.026c-.762,3.5-1.71,7.86-6.755,10.771a12.3,12.3,0,0,1-6.283,1.749A20.755,20.755,0,0,1,1487.292,1204.164Z" fill="#d36033"/>
  </g>
</svg>
