<svg xmlns="http://www.w3.org/2000/svg" width="700" height="347" viewBox="0 0 700 347">
  <g id="Ai" transform="translate(-222 -855)">
    <g id="Vector_Smart_Object" data-name="Vector Smart Object" transform="translate(172.471 756.318)">
      <g id="Group_345" data-name="Group 345">
        <g id="Group_340" data-name="Group 340">
          <path id="Path_647" data-name="Path 647" d="M164.671,279.755s-8.378-9.775-.517-15.985c0,0,5.743-3.477,10.425-3.194,0,0-6.635,11.127-4.488,12.233s6.5-12.932,6.5-12.932,13.068-1.267,17.272.754c0,0-11.171,9.143-8.818,9.687s14.419-8.43,14.419-8.43,12.162,2.07,11.514,9.49-4.839,9.711-6.681,9.514-12.617-4.311-12.851-2.8,6.251,6.442,10.793,6.673c0,0-8.575,9.458-14.274,6.728s-6.185-7.056-9.738-8.679-6.585-1.619-5.118.036,7.9,3.263,9.927,6.857,3.854,6.018-2.042,5.131-15.48-5.2-15.9-10.143Z" fill="#c8dbf4"/>
          <g id="Group_339" data-name="Group 339">
            <path id="Path_648" data-name="Path 648" d="M205,271.58s-33.034-1.273-40.329,8.175a23.893,23.893,0,0,1-6.578,9.233l-.774,2.109s5.724-6.036,7.773-6.4C165.091,284.7,161.888,272.99,205,271.58Z" fill="#c8dbf4"/>
            <path id="Path_649" data-name="Path 649" d="M158.093,288.987A20.747,20.747,0,0,0,150.51,303.6l1.287.115s2.264-9.689,6.358-13.478S158.093,288.987,158.093,288.987Z" fill="#c8dbf4"/>
          </g>
        </g>
        <g id="Group_342" data-name="Group 342">
          <path id="Path_650" data-name="Path 650" d="M135.378,267.461s13.327-7.464,7.108-17.594c0,0-4.976-6.22-10.307-7.82,0,0,2.843,15.106,0,15.461s-1.955-17.061-1.955-17.061-14.039-6.753-19.547-6.22c0,0,8.707,14.751,5.864,14.4s-12.617-15.284-12.617-15.284-14.394-2.666-16.7,5.865,1.421,12.8,3.554,13.329,15.815.355,15.46,2.133-9.6,4.621-14.749,3.021c0,0,5.686,14.04,13.15,13.329s9.774-5.332,14.394-5.687,8,.889,5.686,2.133-10.129.408-13.861,3.581-6.753,5.128.178,6.549,19.369.533,21.857-4.8Z" fill="#c8dbf4"/>
          <g id="Group_341" data-name="Group 341">
            <path id="Path_651" data-name="Path 651" d="M93.8,241.87s37.317,12.085,41.582,25.591a28.356,28.356,0,0,0,3.554,12.974V283.1s-3.91-9.064-6.042-10.308C132.89,272.793,141.242,261.063,93.8,241.87Z" fill="#c8dbf4"/>
            <path id="Path_652" data-name="Path 652" d="M138.932,280.435a24.617,24.617,0,0,1,2.474,19.379l-1.481-.4s1.437-11.718-1.574-17.612S138.932,280.435,138.932,280.435Z" fill="#c8dbf4"/>
          </g>
        </g>
        <g id="Group_344" data-name="Group 344">
          <path id="Path_653" data-name="Path 653" d="M156.581,257.167s-17.568-9.839-9.37-23.192c0,0,6.559-8.2,13.586-10.308,0,0-3.748,19.913,0,20.381s2.577-22.489,2.577-22.489,18.505-8.9,25.767-8.2c0,0-11.478,19.444-7.73,18.976s16.631-20.147,16.631-20.147,18.974-3.514,22.019,7.731-1.874,16.867-4.685,17.57-20.848.468-20.379,2.811,12.649,6.091,19.442,3.983c0,0-7.5,18.507-17.334,17.57s-12.883-7.028-18.974-7.5-10.541,1.171-7.5,2.811,13.352.537,18.271,4.72,8.9,6.759-.234,8.633-25.532.7-28.812-6.325Z" fill="#d4e4f8"/>
          <g id="Group_343" data-name="Group 343">
            <path id="Path_654" data-name="Path 654" d="M211.393,223.433s-49.191,15.93-54.813,33.734a37.377,37.377,0,0,1-4.685,17.1v3.514s5.153-11.948,7.964-13.588C159.86,264.195,148.851,248.733,211.393,223.433Z" fill="#d4e4f8"/>
            <path id="Path_655" data-name="Path 655" d="M151.9,274.268s-7.586,11.521-3.261,25.545l1.952-.524s-1.894-15.447,2.075-23.215S151.9,274.268,151.9,274.268Z" fill="#d4e4f8"/>
          </g>
        </g>
        <path id="Path_656" data-name="Path 656" d="M155.989,330.226A34.415,34.415,0,0,0,190.4,295.809H121.575A34.415,34.415,0,0,0,155.989,330.226Z" fill="#d4e4f8"/>
        <path id="Rectangle_89" data-name="Rectangle 89" d="M4.246,0H65.531a4.246,4.246,0,0,1,4.246,4.246v0a0,0,0,0,1,0,0H0a0,0,0,0,1,0,0v0A4.246,4.246,0,0,1,4.246,0Z" transform="translate(121.1 327.731)" fill="#d4e4f8"/>
        <rect id="Rectangle_90" data-name="Rectangle 90" width="70.741" height="1.056" transform="translate(120.444 295.809)" fill="#9fc1f4"/>
      </g>
      <g id="Group_349" data-name="Group 349">
        <g id="Group_346" data-name="Group 346">
          <path id="Path_657" data-name="Path 657" d="M333.562,443.751l.17,0a2.309,2.309,0,0,0,2.333-2.47l-9.276-92.652-8.095.722,13.32,93.15A1.507,1.507,0,0,0,333.562,443.751Z" fill="#8cb4f4"/>
        </g>
        <g id="Group_347" data-name="Group 347">
          <path id="Path_658" data-name="Path 658" d="M244.24,443.751l-.17,0a2.309,2.309,0,0,1-2.334-2.47l9.276-92.652,8.094.722-13.32,93.15A1.507,1.507,0,0,1,244.24,443.751Z" fill="#8cb4f4"/>
        </g>
        <g id="Group_348" data-name="Group 348">
          <path id="Path_659" data-name="Path 659" d="M399.005,443.751l.17,0a2.309,2.309,0,0,0,2.333-2.47l-9.276-92.652-8.094.722,13.32,93.15A1.507,1.507,0,0,0,399.005,443.751Z" fill="#8cb4f4"/>
        </g>
        <path id="Path_660" data-name="Path 660" d="M247,335.149l-16.466-81.322c-2.113-11.01,7.009-21.078,18.855-20.808l31.756.725a25.086,25.086,0,0,1,23.525,18.11l24.09,83.294Z" fill="#8cb4f4"/>
        <path id="Path_661" data-name="Path 661" d="M256.965,335.149,240.5,253.827c-2.114-11.01,7.009-21.078,18.855-20.808l31.756.725a25.086,25.086,0,0,1,23.525,18.11l24.091,83.294Z" fill="#8cb4f4"/>
        <path id="Rectangle_91" data-name="Rectangle 91" d="M4.59,0H130.228a4.59,4.59,0,0,1,4.59,4.59V14.832a0,0,0,0,1,0,0H4.59A4.59,4.59,0,0,1,0,10.242V4.59A4.59,4.59,0,0,1,4.59,0Z" transform="matrix(-1, 0, 0, -1, 381.821, 349.981)" fill="#8cb4f4"/>
        <rect id="Rectangle_92" data-name="Rectangle 92" width="87.486" height="14.832" rx="3.697" transform="matrix(-1, 0, 0, -1, 394.34, 349.981)" fill="#8cb4f4"/>
      </g>
      <g id="Group_354" data-name="Group 354">
        <path id="Path_662" data-name="Path 662" d="M209.515,334.09v2.774c0,.971-.314,1.764-.7,1.764H107.582c-.384,0-.7-.793-.7-1.764V334.09c0-.97.314-1.764.7-1.764H208.817C209.2,332.325,209.515,333.12,209.515,334.09Z" fill="#9abfe2"/>
        <path id="Path_663" data-name="Path 663" d="M209.515,334.09v2.774c0,.971-.288,1.764-.641,1.764H128.505c-.352,0-.641-.793-.641-1.764V334.09c0-.97.289-1.764.641-1.764h80.369C209.227,332.325,209.515,333.12,209.515,334.09Z" fill="#bad4f4"/>
        <rect id="Rectangle_93" data-name="Rectangle 93" width="71.87" height="104.765" transform="translate(112.023 338.63)" fill="#c8dbf4"/>
        <rect id="Rectangle_94" data-name="Rectangle 94" width="71.871" height="104.765" transform="translate(132.163 338.63)" fill="#dfebfd"/>
        <g id="Group_353" data-name="Group 353">
          <g id="Group_350" data-name="Group 350">
            <path id="Path_664" data-name="Path 664" d="M200.173,437.611H136.026V341.589h64.147Zm-63.454-.693H199.48V342.282H136.719Z" fill="#b7d3f3"/>
          </g>
          <g id="Group_351" data-name="Group 351">
            <rect id="Rectangle_95" data-name="Rectangle 95" width="63.454" height="0.693" transform="translate(136.372 373.354)" fill="#b7d3f3"/>
          </g>
          <g id="Group_352" data-name="Group 352">
            <rect id="Rectangle_96" data-name="Rectangle 96" width="63.454" height="0.693" transform="translate(136.372 405.737)" fill="#b7d3f3"/>
          </g>
          <path id="Path_665" data-name="Path 665" d="M174.6,347.782H162.827a1.042,1.042,0,0,1-1.039-1.039h0a1.042,1.042,0,0,1,1.039-1.039H174.6a1.042,1.042,0,0,1,1.039,1.039h0A1.042,1.042,0,0,1,174.6,347.782Z" fill="#b7d3f3"/>
          <path id="Path_666" data-name="Path 666" d="M174.6,379.45H162.827a1.042,1.042,0,0,1-1.039-1.039h0a1.042,1.042,0,0,1,1.039-1.039H174.6a1.042,1.042,0,0,1,1.039,1.039h0A1.042,1.042,0,0,1,174.6,379.45Z" fill="#b7d3f3"/>
          <path id="Path_667" data-name="Path 667" d="M174.6,412.461H162.827a1.042,1.042,0,0,1-1.039-1.039h0a1.042,1.042,0,0,1,1.039-1.039H174.6a1.042,1.042,0,0,1,1.039,1.039h0A1.042,1.042,0,0,1,174.6,412.461Z" fill="#b7d3f3"/>
        </g>
      </g>
      <g id="Group_361" data-name="Group 361">
        <path id="Rectangle_97" data-name="Rectangle 97" d="M3.8,0H49.358a3.8,3.8,0,0,1,3.8,3.8V47.776a3.8,3.8,0,0,1-3.8,3.8H3.8a3.8,3.8,0,0,1-3.8-3.8V3.8A3.8,3.8,0,0,1,3.8,0Z" transform="translate(442.3 98.682)" fill="#c0d8fb"/>
        <rect id="Rectangle_98" data-name="Rectangle 98" width="48.554" height="47.11" rx="3.473" transform="translate(444.603 100.916)" fill="#dfebfd"/>
        <g id="Group_357" data-name="Group 357">
          <g id="Group_355" data-name="Group 355">
            <ellipse id="Ellipse_21" data-name="Ellipse 21" cx="1.101" cy="1.101" rx="1.101" ry="1.101" transform="translate(467.779 104.522)" fill="#b7d3f3"/>
            <path id="Path_668" data-name="Path 668" d="M476.664,107.18a1.1,1.1,0,1,1,.428,1.5A1.1,1.1,0,0,1,476.664,107.18Z" fill="#b7d3f3"/>
            <path id="Path_669" data-name="Path 669" d="M484.277,113.229a1.1,1.1,0,1,1-.329,1.523A1.1,1.1,0,0,1,484.277,113.229Z" fill="#b7d3f3"/>
            <path id="Path_670" data-name="Path 670" d="M488.048,122.591a1.1,1.1,0,1,1-1.1,1.1A1.1,1.1,0,0,1,488.048,122.591Z" fill="#b7d3f3"/>
            <path id="Path_671" data-name="Path 671" d="M486.123,133.455a1.1,1.1,0,1,1-1.557,0A1.1,1.1,0,0,1,486.123,133.455Z" fill="#b7d3f3"/>
            <path id="Path_672" data-name="Path 672" d="M479.207,140.389a1.1,1.1,0,1,1-1.557,0A1.1,1.1,0,0,1,479.207,140.389Z" fill="#b7d3f3"/>
            <path id="Path_673" data-name="Path 673" d="M467.779,143.963a1.1,1.1,0,1,1,1.1,1.1A1.1,1.1,0,0,1,467.779,143.963Z" fill="#b7d3f3"/>
          </g>
          <g id="Group_356" data-name="Group 356">
            <path id="Path_674" data-name="Path 674" d="M461.061,107.18a1.1,1.1,0,1,0-.428,1.5A1.1,1.1,0,0,0,461.061,107.18Z" fill="#b7d3f3"/>
            <path id="Path_675" data-name="Path 675" d="M453.448,113.229a1.1,1.1,0,1,0,.328,1.523A1.1,1.1,0,0,0,453.448,113.229Z" fill="#b7d3f3"/>
            <path id="Path_676" data-name="Path 676" d="M449.678,122.591a1.1,1.1,0,1,0,1.1,1.1A1.1,1.1,0,0,0,449.678,122.591Z" fill="#b7d3f3"/>
            <path id="Path_677" data-name="Path 677" d="M451.6,133.455a1.1,1.1,0,1,0,1.557,0A1.1,1.1,0,0,0,451.6,133.455Z" fill="#b7d3f3"/>
            <ellipse id="Ellipse_22" data-name="Ellipse 22" cx="1.101" cy="1.101" rx="1.101" ry="1.101" transform="translate(458.195 140.066)" fill="#b7d3f3"/>
          </g>
        </g>
        <g id="Group_360" data-name="Group 360">
          <path id="Path_678" data-name="Path 678" d="M468.583,123.692a1.1,1.1,0,1,1,1.1,1.1A1.1,1.1,0,0,1,468.583,123.692Z" fill="#b7d3f3"/>
          <g id="Group_358" data-name="Group 358">
            <rect id="Rectangle_99" data-name="Rectangle 99" width="0.301" height="13.758" transform="translate(469.534 109.934)" fill="#b7d3f3"/>
          </g>
          <g id="Group_359" data-name="Group 359">
            <rect id="Rectangle_100" data-name="Rectangle 100" width="9.272" height="0.902" transform="matrix(0.787, -0.618, 0.617, 0.787, 469.267, 123.318)" fill="#b7d3f3"/>
          </g>
        </g>
      </g>
      <g id="Group_364" data-name="Group 364">
        <g id="Group_363" data-name="Group 363">
          <path id="Path_679" data-name="Path 679" d="M356.454,318.131c-6.8,11.831-15.346,16.4-15.346,16.4H305.543S361.639,309.105,356.454,318.131Z" fill="#233862"/>
          <g id="Group_362" data-name="Group 362">
            <path id="Path_680" data-name="Path 680" d="M400.32,435.67c-.385,3.732,4.806,4.7,10.825,5.061s4.186,1.579,12.424,3.162,11.569-.64,12.178-1.749c.543-.983-3.278-2.572-7.349-4.365-.513-.224-1.025-.455-1.538-.685-4.581-2.073-7.119-6.229-10.666-10.095-3.36-3.662-6.463-15.3-6.463-15.3l-11.19-2.516s3.037,10.481,4.083,14.952c.615,2.63-.366,5.553-1.232,7.776A14.681,14.681,0,0,0,400.32,435.67Z" fill="#ffb27d"/>
            <path id="Path_681" data-name="Path 681" d="M411.145,440.731c6.02.365,4.186,1.579,12.424,3.162s11.569-.64,12.178-1.749c.543-.983-3.278-2.572-7.349-4.365l-.064.069a23.5,23.5,0,0,1-12.5.015c-5.444-1.541-10.688-4.861-14.439-5.956a14.681,14.681,0,0,0-1.072,3.763C399.936,439.4,405.126,440.366,411.145,440.731Z" fill="#0f2549"/>
            <path id="Path_682" data-name="Path 682" d="M383.366,306.012c-6.021-4.229-45.852-11.767-66.179-13.947l-22.467-19.5s-19.124,28.327-19.275,50c-.071,10.1,4.583,11.108,4.584,11.11s72.022.534,75.179.86c5.168.533,11.984,13.407,13.688,25.134s31.736,59.42,31.736,59.42,6.263,2.007,9.16,1.837a9.152,9.152,0,0,0,4.557-1.226S396.946,315.548,383.366,306.012Z" fill="#233862"/>
            <path id="Path_683" data-name="Path 683" d="M381.691,435.67c-.385,3.732,4.806,4.7,10.825,5.061s4.186,1.579,12.424,3.162,11.569-.64,12.179-1.749c.543-.983-3.278-2.572-7.349-4.365-.512-.224-1.025-.455-1.538-.685-4.581-2.073-7.119-6.229-10.666-10.095-3.36-3.662-6.463-15.3-6.463-15.3l-11.19-2.516S382.95,419.66,384,424.131c.615,2.63-.366,5.553-1.232,7.776A14.671,14.671,0,0,0,381.691,435.67Z" fill="#ffb27d"/>
            <path id="Path_684" data-name="Path 684" d="M392.516,440.731c6.02.365,4.186,1.579,12.424,3.162s11.569-.64,12.179-1.749c.543-.983-3.278-2.572-7.349-4.365l-.064.069a23.5,23.5,0,0,1-12.5.015c-5.444-1.541-10.688-4.861-14.438-5.956a14.671,14.671,0,0,0-1.073,3.763C381.307,439.4,386.5,440.366,392.516,440.731Z" fill="#233862"/>
            <path id="Path_685" data-name="Path 685" d="M364.572,306.012c-5.231-3.674-20.964-6.521-38.332-8.636a11.683,11.683,0,0,1-9.917-8.769h0l-40.4-16.047s-19.124,28.327-19.275,50c-.071,10.1,4.583,11.108,4.584,11.11s72.022.534,75.179.86c5.167.533,11.984,13.407,13.687,25.134s31.736,59.42,31.736,59.42,6.263,2.007,9.16,1.837a9.153,9.153,0,0,0,4.557-1.226S378.152,315.548,364.572,306.012Z" fill="#2b478b"/>
            <path id="Path_686" data-name="Path 686" d="M310.517,154.865c-5.551-2.915-14-3.31-15.37-3.494-16.421-2.207-26.3,21.657-26.885,28.887-1.071,13.328-8.121,15.36-18.044,23.707-19.9,16.737-14.062,36.184-3.182,43.411,6.528,4.336,18.034,0,18.034,0,.163.114,31.467-17.5,46.9-26C335.1,218.087,324.663,162.294,310.517,154.865Z" fill="#233862"/>
            <path id="Path_687" data-name="Path 687" d="M307.092,213.166c.072.037-7.3,3.388-12.616,1.631-5-1.649-9.411-9.183-9.34-9.194,2.172-.315,4.38-2.458,5-15.155l.962.242,16.171,4.088s-.639,5.123-.9,9.967C306.138,208.812,306.183,212.683,307.092,213.166Z" fill="#ffb27d"/>
            <path id="Path_688" data-name="Path 688" d="M307.264,194.778s0,1.054-.6,5.821c-9.146-2.307-13.178-5.34-16.022-8.811Z" fill="#ed975d"/>
            <path id="Path_689" data-name="Path 689" d="M310.714,195.423s-21.384,3.482-23.347-9.87-6.045-21.894,7.525-24.682,16.978,1.916,18.717,6.213S316.226,194.173,310.714,195.423Z" fill="#ffb27d"/>
            <path id="Path_690" data-name="Path 690" d="M310.735,160.312s-9.711,15.33-18.38,18.961-12.928,1.787-12.928,1.787a36.519,36.519,0,0,0,4.972-14.011,6.574,6.574,0,0,1,4.06-5.284C294.679,159.275,306.713,155.346,310.735,160.312Z" fill="#233862"/>
            <path id="Path_691" data-name="Path 691" d="M302.2,161.794s5.692,2.918,8.036,5.653c2.262,2.639,4.875,9.8,4.688,13.018,0,0,2.808-15.414-3.04-20.712C305.687,154.135,302.2,161.794,302.2,161.794Z" fill="#233862"/>
            <path id="Path_692" data-name="Path 692" d="M324.2,245.784c-.649,43.47-.178,34.387-4.933,38.512-1.146.993-4.366,1.585-8.605,1.865-13.328.885-36.757-1.311-37.648-3.775-3.074-8.524-.9-11.172-3.469-24.221-.267-1.388-.6-2.89-.987-4.526-2.139-8.963-4.22-12.012,3.367-26.411,6.88-13.043,14.972-23.638,15.614-23.257,18.153,10.777,18.774,1.743,18.774,1.743S324.517,224.58,324.2,245.784Z" fill="#fff"/>
            <path id="Path_693" data-name="Path 693" d="M306.313,205.715s18.578,3.15,20.772,11.193,15.1,55.326,15.1,55.326-9.5,1.706-13.882-2.681-15.264-40.7-15.264-40.7Z" fill="#fff"/>
            <path id="Path_694" data-name="Path 694" d="M310.661,286.16c-13.328.885-36.757-1.311-37.648-3.775-3.074-8.524-.9-11.172-3.469-24.221l6.428-18.1s-1.063,20.16,4.882,25.462,24.339,10.236,27.229,14.666A16.219,16.219,0,0,1,310.661,286.16Z" fill="#ebf3ff"/>
            <path id="Path_695" data-name="Path 695" d="M295.39,277.682s13.149-2.928,15.271-1.761,7.307,5.417,7.956,6.9-4.723-1.123-6.471-1.592c-1.132-.3-4.111.732-5.585,1.224-6.206,2.069-10.008,1-10.008,1Z" fill="#ffb27d"/>
            <path id="Path_696" data-name="Path 696" d="M287.539,203.972s-18.61,1.088-24.722,9.613c-8.6,12-25.671,63.147-15.89,69.969,11.016,7.682,50.135,2.01,50.135,2.01s1.3-6.085-.509-9.029-31.245-7.7-32.6-9.057,16.981-26.493,16.981-30.569S287.539,203.972,287.539,203.972Z" fill="#fff"/>
            <path id="Path_697" data-name="Path 697" d="M311.3,279.581s2.755,3.554,3.659,3.979a2.7,2.7,0,0,0,1.486.318l-1.856-3.342Z" fill="#ffb27d"/>
            <path id="Path_698" data-name="Path 698" d="M310.661,275.921l8.01,3.89a1.427,1.427,0,0,1-1.327.513,19.094,19.094,0,0,1-3.474-.955Z" fill="#ffb27d"/>
          </g>
        </g>
      </g>
      <g id="Group_365" data-name="Group 365">
        <path id="Path_699" data-name="Path 699" d="M340.169,285.143h-37.2a2.966,2.966,0,0,1,2.966-2.966h34.237Z" fill="#ed7d2b"/>
        <path id="Path_700" data-name="Path 700" d="M340.062,244.622H397.58l-13.8,40.521H325.893Z" fill="#ed7d2b"/>
        <path id="Path_701" data-name="Path 701" d="M398.427,244.621l-13.8,40.522H326.739l14.17-40.522Z" fill="#d36033"/>
        <path id="Path_702" data-name="Path 702" d="M367.417,264.507a3.74,3.74,0,0,1-3.45,2.8,2.158,2.158,0,0,1-2.156-2.8,3.74,3.74,0,0,1,3.45-2.8A2.158,2.158,0,0,1,367.417,264.507Z" fill="#fff"/>
      </g>
      <g id="Group_369" data-name="Group 369">
        <rect id="Rectangle_101" data-name="Rectangle 101" width="255.9" height="9.116" rx="1.919" transform="translate(288.188 285.143)" fill="#182d4f"/>
        <g id="Group_366" data-name="Group 366">
          <path id="Path_703" data-name="Path 703" d="M548.34,444.429l.108-.013a2.314,2.314,0,0,0,2.042-2.574L528.029,289.781l-8.223.236L546.233,442.9A1.889,1.889,0,0,0,548.34,444.429Z" fill="#182d4f"/>
        </g>
        <g id="Group_367" data-name="Group 367">
          <path id="Path_704" data-name="Path 704" d="M281.667,444.429l-.108-.013a2.315,2.315,0,0,1-2.042-2.574l22.462-152.061,8.223.236L283.773,442.9A1.889,1.889,0,0,1,281.667,444.429Z" fill="#182d4f"/>
        </g>
        <g id="Group_368" data-name="Group 368">
          <path id="Path_705" data-name="Path 705" d="M333.666,444.429l-.108-.013a2.314,2.314,0,0,1-2.042-2.574l22.462-152.061,8.223.236L335.773,442.9A1.89,1.89,0,0,1,333.666,444.429Z" fill="#182d4f"/>
        </g>
      </g>
      <path id="Rectangle_102" data-name="Rectangle 102" d="M.955,0H699.046A.954.954,0,0,1,700,.954v.78a.955.955,0,0,1-.955.955H.955A.955.955,0,0,1,0,1.735V.955A.955.955,0,0,1,.955,0Z" transform="translate(49.529 442.993)" fill="#fff7f0"/>
      <g id="Group_370" data-name="Group 370">
        <path id="Path_706" data-name="Path 706" d="M466.182,444.306h44.572c2.144-2.616,1.354-12.271,1.03-15.423-.067-.635-.113-1-.113-1s-15.221-12.176-17.312-2.853c-.064.293-.141.578-.226.861-2.634,8.72-14.449,12.683-21.271,13.787C468.428,440.392,466.789,442.7,466.182,444.306Z" fill="#233862"/>
        <path id="Path_707" data-name="Path 707" d="M587.8,299.459c-1.609,0-76.35,14.035-88.713,29.34-6.176,7.646-7.094,95.947-7.094,95.947s7.641,9.474,24.143,3.973c0,0,12.1-60.414,11.206-78.738-.247-5.067,51.067-.733,60.459-3.164S620.143,323.953,615.087,314,587.8,299.459,587.8,299.459Z" fill="#233862"/>
        <path id="Path_708" data-name="Path 708" d="M499.412,277.837s-15.076.2-18.642,1.732-10.8,5.036-8.863,5.575,11.171-.222,13.166.084a33.667,33.667,0,0,0,5.68-.084h6.924Z" fill="#ffb27d"/>
        <path id="Path_709" data-name="Path 709" d="M481.785,241.653s-5.14-3.673-10.132-4.386a43.865,43.865,0,0,1-7.288-1.5c-4.606-1.623-13.821-9.91-13.124-10.882,2.235-3.115,12.994,3.477,14.871,2.77s-3.61-4.61-1.7-5.982c1-.717,3.329,2.876,5.235,3.237,2.579.488,4.6,4.13,5.371,4.32,1.511.37,8.131,5.293,8.131,5.293Z" fill="#ffb27d"/>
        <path id="Path_710" data-name="Path 710" d="M584.04,198.3s-11.476,3.557-22.783,34.7-15.6,32.821-19.712,34.044-40.187,8.405-40.187,8.405v9.242h55.589s20.844-19.83,27.093-33.18S584.04,198.3,584.04,198.3Z" fill="#d36033"/>
        <path id="Path_711" data-name="Path 711" d="M446.483,444.306h44.572c2.144-2.616,1.354-12.271,1.029-15.423-.067-.635-.113-1-.113-1s-15.221-12.176-17.312-2.853c-.063.293-.141.578-.225.861-2.634,8.72-14.449,12.683-21.271,13.787C448.729,440.392,447.09,442.7,446.483,444.306Z" fill="#1b3051"/>
        <path id="Path_712" data-name="Path 712" d="M565.779,299.459c-1.609,0-76.351,14.035-88.713,29.34-6.176,7.646-7.094,95.947-7.094,95.947s7.641,9.474,24.143,3.973c0,0,12.1-60.414,11.205-78.738-.247-5.067,51.067-.733,60.459-3.164S598.119,323.953,593.062,314,565.779,299.459,565.779,299.459Z" fill="#2b478b"/>
        <path id="Path_713" data-name="Path 713" d="M570.457,208.623a72.56,72.56,0,0,0,15.887-3.458c6.09-1.976,11-4.865,7.836-10.433-2.916-5.131-7.634-16.593-7.316-26.089l-11.333,9.134-7.7,6.2a92.307,92.307,0,0,0,.873,10.068q.231,1.753.546,3.778a2.746,2.746,0,0,1-1.266,2.758l-.174.108A4.3,4.3,0,0,0,570.457,208.623Z" fill="#ffb27d"/>
        <path id="Path_714" data-name="Path 714" d="M567.832,182.472s-.394,1.328.283,6.232c6.863-1.12,13.279-6.595,13.279-6.595-3.494-.959-4.766-4.735-7.368-4.383Z" fill="#ed975d"/>
        <path id="Path_715" data-name="Path 715" d="M561.484,183.59s26.4,4.386,28.879-12.1,7.555-27.021-9.2-30.518-20.979,2.3-23.145,7.6S554.68,182.024,561.484,183.59Z" fill="#ffb27d"/>
        <path id="Path_716" data-name="Path 716" d="M554.138,141.279c-1.134,3.969,1.9,8.8,6.993,10.4,7.56,2.363,5.89,11.637,9.292,11.511s4.775-5.331,7.813-1.172c2.592,3.547-2.157,7.753-1.831,9.7.561,3.339,5.791,10.172,10.5,9.829s13.534-22.746,11.77-29.677-8.82-14.24-15.5-15.248-15.953,1.876-18.095,1.876S554.751,139.135,554.138,141.279Z" fill="#2b478b"/>
        <path id="Path_717" data-name="Path 717" d="M615.439,221.633c-3.816-15.36-14.362-31.477-21.493-31.463-12.152.023-29.62,3.23-36.673,20.631-5.194,12.815-12.124,86.535-4.293,91.778,17.9,11.985,59.395,36.451,66.765,11.5C626.5,291.218,622.062,248.292,615.439,221.633Z" fill="#d36033"/>
        <path id="Path_718" data-name="Path 718" d="M585.925,206.348a14.392,14.392,0,0,0-22.273-6.2,136.194,136.194,0,0,0-15.275,14.275c-22.677,24.151-27.285,24-31.544,23.5s-40.242-8.137-40.242-8.137a10.88,10.88,0,0,0-2.927,3.557,6.7,6.7,0,0,0-.719,4.935c-1.409-.911,12.755,8.854,19.806,12.748,9.311,5.142,23.341,9.962,28.929,11.793a7.468,7.468,0,0,0,4.86-.072c8.294-2.99,36.147-13.885,58.821-32.789C591.335,224.975,589.14,214.71,585.925,206.348Z" fill="#d36033"/>
        <path id="Path_719" data-name="Path 719" d="M595.169,190.318l-2.751-6.2s-24.626,2.008-28.765,16.026C563.653,200.145,582.742,190.618,595.169,190.318Z" fill="#fff"/>
      </g>
      <g id="Group_374" data-name="Group 374">
        <g id="Group_371" data-name="Group 371">
          <path id="Path_720" data-name="Path 720" d="M654.957,443.751l.17,0a2.309,2.309,0,0,0,2.333-2.47l-9.276-92.652-8.095.722,13.32,93.15A1.507,1.507,0,0,0,654.957,443.751Z" fill="#8cb4f4"/>
        </g>
        <g id="Group_372" data-name="Group 372">
          <path id="Path_721" data-name="Path 721" d="M607.21,443.751l.17,0a2.309,2.309,0,0,0,2.333-2.47l-9.276-92.652-8.094.722,13.32,93.15A1.507,1.507,0,0,0,607.21,443.751Z" fill="#8cb4f4"/>
        </g>
        <g id="Group_373" data-name="Group 373">
          <path id="Path_722" data-name="Path 722" d="M517.573,443.751l-.17,0a2.309,2.309,0,0,1-2.333-2.47l9.276-92.652,8.094.722-13.32,93.15A1.507,1.507,0,0,1,517.573,443.751Z" fill="#73a2e5"/>
        </g>
        <path id="Path_723" data-name="Path 723" d="M652.335,335.5l8.8-77.384c1.155-11.152-2.577-22.071-18.668-22.916l-28.308-1.724c-16.778-.692-24.353,13.273-26.477,24.024l-16.805,85.064Z" fill="#8cb4f4"/>
        <path id="Rectangle_103" data-name="Rectangle 103" d="M4.59,0H134.818a0,0,0,0,1,0,0V10.242a4.59,4.59,0,0,1-4.59,4.59H4.59A4.59,4.59,0,0,1,0,10.242V4.59A4.59,4.59,0,0,1,4.59,0Z" transform="translate(517.376 335.149)" fill="#73a2e5"/>
        <path id="Rectangle_104" data-name="Rectangle 104" d="M3.564,0H81.313a0,0,0,0,1,0,0V11.267a3.565,3.565,0,0,1-3.565,3.565H3.564A3.564,3.564,0,0,1,0,11.268v-7.7A3.564,3.564,0,0,1,3.564,0Z" transform="translate(570.881 335.149)" fill="#8cb4f4"/>
      </g>
      <text id="d36033" transform="translate(481.898 242.826)" font-size="3" font-family="SegoeUI, Segoe UI"><tspan x="0" y="0">d36033</tspan></text>
    </g>
  </g>
</svg>
